<?xml version="1.0" encoding="UTF-8" standalone="no"?>
<!DOCTYPE svg PUBLIC "-//W3C//DTD SVG 1.1//EN" "http://www.w3.org/Graphics/SVG/1.1/DTD/svg11.dtd">
<svg width="100%" height="100%" viewBox="0 0 556 312" version="1.1" xmlns="http://www.w3.org/2000/svg" xmlns:xlink="http://www.w3.org/1999/xlink" xml:space="preserve" xmlns:serif="http://www.serif.com/" style="fill-rule:evenodd;clip-rule:evenodd;stroke-linecap:round;stroke-linejoin:round;stroke-miterlimit:1.5;">
    <g transform="matrix(1,0,0,1,-1779.1,-92.3663)">
        <g transform="matrix(0.841218,0.025552,0.0245261,0.818061,443.283,-13.5084)">
            <path d="M2029,240L2123,161" style="fill:none;stroke:rgb(162,162,162);stroke-width:9.75px;"/>
        </g>
        <path d="M2233.14,106L2233.14,172.446" style="fill:none;stroke:rgb(162,162,162);stroke-width:8.33px;"/>
        <g transform="matrix(0.872893,0,0,0.837845,379.985,37.5532)">
            <path d="M1685,175L1780,241" style="fill:none;stroke:rgb(162,162,162);stroke-width:9.74px;"/>
        </g>
        <g transform="matrix(0.872893,0,0,0.837845,379.985,37.5532)">
            <path d="M1780,241L2029,240" style="fill:none;stroke:rgb(162,162,162);stroke-width:9.74px;"/>
        </g>
        <g transform="matrix(0.915425,0.0449079,-0.0217508,0.840699,292.282,-60.8225)">
            <path d="M2133,168L2211,189" style="fill:none;stroke:rgb(162,162,162);stroke-width:9.37px;"/>
        </g>
        <g transform="matrix(0.872893,0,0,0.837845,379.985,37.5532)">
            <path d="M2123,326L2123,411" style="fill:none;stroke:rgb(162,162,162);stroke-width:9.74px;"/>
        </g>
        <g transform="matrix(0.872893,0,0,0.837845,379.985,37.5532)">
            <path d="M2115,323L2048,387" style="fill:none;stroke:rgb(162,162,162);stroke-width:9.74px;"/>
        </g>
        <g transform="matrix(0.872893,0,0,0.837845,379.985,37.5532)">
            <path d="M1693,323L1734,384" style="fill:none;stroke:rgb(162,162,162);stroke-width:9.74px;"/>
        </g>
        <g transform="matrix(0.938533,0,0,0.880937,1592.91,117.258)">
            <circle cx="363.807" cy="139.141" r="13.013" style="fill:rgb(92,92,92);stroke:rgb(92,92,92);stroke-width:3.59px;"/>
        </g>
        <g transform="matrix(0.938533,0,0,0.880937,1509.12,62.2661)">
            <circle cx="363.807" cy="139.141" r="13.013" style="fill:rgb(92,92,92);stroke:rgb(92,92,92);stroke-width:3.59px;"/>
        </g>
        <g transform="matrix(0.938533,0,0,0.880937,1509.36,178.727)">
            <circle cx="363.807" cy="139.141" r="13.013" style="fill:rgb(92,92,92);stroke:rgb(92,92,92);stroke-width:3.59px;"/>
        </g>
        <g transform="matrix(0.938533,0,0,0.880937,1810.26,115.888)">
            <circle cx="363.807" cy="139.141" r="13.013" style="fill:rgb(92,92,92);stroke:rgb(92,92,92);stroke-width:3.59px;"/>
        </g>
        <g transform="matrix(0.938533,0,0,0.880937,1558.87,244.916)">
            <circle cx="363.807" cy="139.141" r="13.013" style="fill:rgb(92,92,92);stroke:rgb(92,92,92);stroke-width:3.59px;"/>
        </g>
        <g transform="matrix(0.938533,0,0,0.880937,1451.51,244.916)">
            <circle cx="363.807" cy="139.141" r="13.013" style="fill:rgb(92,92,92);stroke:rgb(92,92,92);stroke-width:3.59px;"/>
        </g>
        <g transform="matrix(0.938533,0,0,0.880937,1891.69,178.727)">
            <circle cx="363.807" cy="139.141" r="13.013" style="fill:rgb(92,92,92);stroke:rgb(92,92,92);stroke-width:3.59px;"/>
        </g>
        <g transform="matrix(0.938533,0,0,0.880937,1891.44,49.6984)">
            <circle cx="363.807" cy="139.141" r="13.013" style="fill:rgb(92,92,92);stroke:rgb(92,92,92);stroke-width:3.59px;"/>
        </g>
        <g transform="matrix(0.938533,0,0,0.880937,1891.69,267.844)">
            <circle cx="363.807" cy="139.141" r="13.013" style="fill:rgb(92,92,92);stroke:rgb(92,92,92);stroke-width:3.59px;"/>
        </g>
        <g transform="matrix(0.938533,0,0,0.880937,1959.53,244.916)">
            <circle cx="363.807" cy="139.141" r="13.013" style="fill:rgb(92,92,92);stroke:rgb(92,92,92);stroke-width:3.59px;"/>
        </g>
        <g transform="matrix(0.938533,0,0,0.880937,1978.73,4.45475)">
            <circle cx="363.807" cy="139.141" r="13.013" style="fill:rgb(92,92,92);stroke:rgb(92,92,92);stroke-width:3.59px;"/>
        </g>
        <g transform="matrix(0.938533,0,0,0.880937,1891.69,-17.1106)">
            <circle cx="363.807" cy="139.141" r="13.013" style="fill:rgb(92,92,92);stroke:rgb(92,92,92);stroke-width:3.59px;"/>
        </g>
        <g transform="matrix(0.938533,0,0,0.880937,1810.77,2.88942)">
            <circle cx="363.807" cy="139.141" r="13.013" style="fill:rgb(92,92,92);stroke:rgb(92,92,92);stroke-width:3.59px;"/>
        </g>
        <g transform="matrix(0.938533,0,0,0.880937,1979.61,75.6716)">
            <circle cx="363.807" cy="139.141" r="13.013" style="fill:rgb(92,92,92);stroke:rgb(92,92,92);stroke-width:3.59px;"/>
        </g>
        <g transform="matrix(0.938533,0,0,0.880937,1821.61,244.916)">
            <circle cx="363.807" cy="139.141" r="13.013" style="fill:rgb(92,92,92);stroke:rgb(92,92,92);stroke-width:3.59px;"/>
        </g>
        <g transform="matrix(0.872893,0,0,0.837845,379.985,37.5532)">
            <path d="M1618.72,393.793L1685,314.793" style="fill:none;stroke:rgb(236,112,121);stroke-width:9.74px;"/>
        </g>
        <g transform="matrix(0.872893,0,0,0.837845,379.985,37.5532)">
            <path d="M1685,314.793L1780,245" style="fill:none;stroke:rgb(236,112,121);stroke-width:9.74px;"/>
        </g>
        <g transform="matrix(0.872893,0,0,0.837845,379.985,37.5532)">
            <path d="M1780,245L2029,244" style="fill:none;stroke:rgb(236,112,121);stroke-width:9.74px;"/>
        </g>
        <g transform="matrix(0.872893,0,0,0.837845,379.985,37.5532)">
            <path d="M2029,244L2123,314.793" style="fill:none;stroke:rgb(236,112,121);stroke-width:9.74px;"/>
        </g>
        <g transform="matrix(0.872893,0,0,0.837845,379.985,37.5532)">
            <path d="M2123,314.793L2200.72,393.793" style="fill:none;stroke:rgb(236,112,121);stroke-width:9.74px;"/>
        </g>
        <g transform="matrix(1.10439,0,0,1.11092,-12.0218,-77.899)">
            <g transform="matrix(25.7742,0,0,25.7742,1828,231.9)">
                <path d="M0.077,-0L0.077,-0.716L0.347,-0.716C0.395,-0.716 0.431,-0.714 0.456,-0.709C0.491,-0.703 0.521,-0.692 0.544,-0.676C0.568,-0.659 0.587,-0.636 0.602,-0.606C0.616,-0.577 0.624,-0.544 0.624,-0.509C0.624,-0.448 0.604,-0.396 0.565,-0.354C0.527,-0.312 0.457,-0.291 0.355,-0.291L0.172,-0.291L0.172,-0L0.077,-0ZM0.172,-0.375L0.357,-0.375C0.418,-0.375 0.462,-0.387 0.487,-0.41C0.513,-0.432 0.526,-0.465 0.526,-0.506C0.526,-0.536 0.518,-0.561 0.503,-0.583C0.488,-0.604 0.468,-0.618 0.443,-0.625C0.427,-0.629 0.398,-0.631 0.355,-0.631L0.172,-0.631L0.172,-0.375Z" style="fill:rgb(255,139,83);fill-rule:nonzero;"/>
            </g>
            <g transform="matrix(25.7742,0,0,25.7742,1845.19,231.9)">
                <path d="M0.404,-0.064C0.372,-0.036 0.34,-0.017 0.31,-0.005C0.28,0.006 0.248,0.012 0.213,0.012C0.156,0.012 0.113,-0.002 0.082,-0.03C0.051,-0.058 0.036,-0.093 0.036,-0.137C0.036,-0.162 0.042,-0.185 0.053,-0.206C0.065,-0.227 0.08,-0.244 0.099,-0.257C0.118,-0.27 0.139,-0.279 0.162,-0.286C0.179,-0.29 0.205,-0.295 0.24,-0.299C0.311,-0.307 0.363,-0.317 0.397,-0.329C0.397,-0.341 0.397,-0.349 0.397,-0.352C0.397,-0.388 0.389,-0.413 0.373,-0.428C0.35,-0.448 0.317,-0.458 0.272,-0.458C0.231,-0.458 0.201,-0.45 0.181,-0.436C0.161,-0.421 0.147,-0.396 0.137,-0.359L0.051,-0.371C0.059,-0.407 0.072,-0.437 0.09,-0.46C0.108,-0.482 0.134,-0.5 0.167,-0.512C0.201,-0.524 0.241,-0.53 0.285,-0.53C0.329,-0.53 0.365,-0.525 0.393,-0.515C0.421,-0.504 0.441,-0.491 0.454,-0.475C0.467,-0.46 0.476,-0.44 0.481,-0.416C0.484,-0.401 0.486,-0.374 0.486,-0.334L0.486,-0.217C0.486,-0.136 0.488,-0.084 0.491,-0.062C0.495,-0.041 0.503,-0.02 0.514,-0L0.422,-0C0.413,-0.018 0.407,-0.04 0.404,-0.064ZM0.397,-0.26C0.365,-0.247 0.317,-0.236 0.253,-0.227C0.217,-0.222 0.192,-0.216 0.177,-0.209C0.162,-0.203 0.15,-0.193 0.142,-0.181C0.134,-0.168 0.13,-0.154 0.13,-0.139C0.13,-0.116 0.139,-0.096 0.156,-0.081C0.174,-0.065 0.2,-0.057 0.234,-0.057C0.268,-0.057 0.298,-0.065 0.325,-0.079C0.351,-0.094 0.37,-0.114 0.383,-0.14C0.392,-0.16 0.397,-0.189 0.397,-0.228L0.397,-0.26Z" style="fill:rgb(255,139,83);fill-rule:nonzero;"/>
            </g>
            <g transform="matrix(25.7742,0,0,25.7742,1859.53,231.9)">
                <path d="M0.258,-0.079L0.271,-0.001C0.246,0.004 0.224,0.007 0.204,0.007C0.172,0.007 0.147,0.002 0.13,-0.008C0.112,-0.018 0.1,-0.032 0.093,-0.048C0.086,-0.065 0.082,-0.099 0.082,-0.152L0.082,-0.45L0.018,-0.45L0.018,-0.519L0.082,-0.519L0.082,-0.647L0.169,-0.7L0.169,-0.519L0.258,-0.519L0.258,-0.45L0.169,-0.45L0.169,-0.147C0.169,-0.122 0.171,-0.106 0.174,-0.099C0.177,-0.091 0.182,-0.086 0.189,-0.082C0.196,-0.077 0.206,-0.075 0.219,-0.075C0.229,-0.075 0.242,-0.076 0.258,-0.079Z" style="fill:rgb(255,139,83);fill-rule:nonzero;"/>
            </g>
            <g transform="matrix(25.7742,0,0,25.7742,1866.69,231.9)">
                <path d="M0.066,-0L0.066,-0.716L0.154,-0.716L0.154,-0.459C0.195,-0.507 0.247,-0.53 0.309,-0.53C0.347,-0.53 0.381,-0.523 0.409,-0.508C0.438,-0.492 0.458,-0.472 0.47,-0.445C0.482,-0.418 0.488,-0.379 0.488,-0.329L0.488,-0L0.4,-0L0.4,-0.329C0.4,-0.373 0.391,-0.405 0.372,-0.425C0.353,-0.445 0.326,-0.455 0.291,-0.455C0.265,-0.455 0.24,-0.448 0.218,-0.434C0.195,-0.421 0.178,-0.403 0.168,-0.379C0.159,-0.356 0.154,-0.324 0.154,-0.284L0.154,-0L0.066,-0Z" style="fill:rgb(255,139,83);fill-rule:nonzero;"/>
            </g>
            <g transform="matrix(25.7742,0,0,25.7742,1888.18,231.9)">
                <path d="M0.073,-0L0.073,-0.716L0.168,-0.716L0.168,-0.084L0.521,-0.084L0.521,-0L0.073,-0Z" style="fill:rgb(255,139,83);fill-rule:nonzero;"/>
            </g>
            <g transform="matrix(25.7742,0,0,25.7742,1902.52,231.9)">
                <path d="M0.421,-0.167L0.512,-0.156C0.497,-0.103 0.471,-0.062 0.432,-0.032C0.393,-0.003 0.344,0.012 0.284,0.012C0.208,0.012 0.148,-0.012 0.103,-0.058C0.059,-0.105 0.037,-0.171 0.037,-0.255C0.037,-0.342 0.059,-0.41 0.104,-0.458C0.149,-0.506 0.207,-0.53 0.279,-0.53C0.348,-0.53 0.405,-0.507 0.449,-0.459C0.493,-0.412 0.515,-0.346 0.515,-0.26C0.515,-0.255 0.514,-0.247 0.514,-0.237L0.127,-0.237C0.131,-0.18 0.147,-0.136 0.176,-0.106C0.205,-0.076 0.241,-0.061 0.284,-0.061C0.316,-0.061 0.344,-0.069 0.367,-0.086C0.389,-0.103 0.408,-0.13 0.421,-0.167ZM0.132,-0.309L0.422,-0.309C0.418,-0.353 0.407,-0.385 0.389,-0.407C0.361,-0.441 0.324,-0.458 0.28,-0.458C0.239,-0.458 0.205,-0.444 0.178,-0.417C0.15,-0.39 0.135,-0.354 0.132,-0.309Z" style="fill:rgb(255,139,83);fill-rule:nonzero;"/>
            </g>
            <g transform="matrix(25.7742,0,0,25.7742,1916.85,231.9)">
                <path d="M0.066,-0L0.066,-0.519L0.145,-0.519L0.145,-0.445C0.183,-0.502 0.238,-0.53 0.31,-0.53C0.341,-0.53 0.37,-0.525 0.396,-0.513C0.422,-0.502 0.442,-0.487 0.455,-0.469C0.468,-0.451 0.477,-0.429 0.482,-0.404C0.486,-0.388 0.487,-0.36 0.487,-0.319L0.487,-0L0.399,-0L0.399,-0.315C0.399,-0.351 0.396,-0.378 0.389,-0.396C0.382,-0.413 0.37,-0.428 0.353,-0.438C0.335,-0.449 0.315,-0.454 0.292,-0.454C0.254,-0.454 0.222,-0.442 0.195,-0.418C0.167,-0.395 0.154,-0.35 0.154,-0.283L0.154,-0L0.066,-0Z" style="fill:rgb(255,139,83);fill-rule:nonzero;"/>
            </g>
            <g transform="matrix(25.7742,0,0,25.7742,1931.19,231.9)">
                <path d="M0.05,0.043L0.135,0.056C0.139,0.082 0.149,0.101 0.165,0.113C0.187,0.13 0.217,0.138 0.254,0.138C0.295,0.138 0.326,0.13 0.349,0.113C0.371,0.097 0.386,0.074 0.394,0.045C0.398,0.027 0.4,-0.011 0.4,-0.068C0.361,-0.023 0.314,-0 0.256,-0C0.185,-0 0.13,-0.026 0.091,-0.077C0.052,-0.129 0.032,-0.19 0.032,-0.262C0.032,-0.312 0.041,-0.357 0.059,-0.399C0.077,-0.441 0.103,-0.473 0.137,-0.496C0.171,-0.519 0.211,-0.53 0.257,-0.53C0.318,-0.53 0.368,-0.506 0.408,-0.456L0.408,-0.519L0.489,-0.519L0.489,-0.07C0.489,0.01 0.481,0.068 0.465,0.101C0.448,0.135 0.422,0.162 0.386,0.181C0.351,0.201 0.307,0.21 0.255,0.21C0.193,0.21 0.143,0.197 0.105,0.169C0.067,0.141 0.049,0.099 0.05,0.043ZM0.123,-0.269C0.123,-0.201 0.136,-0.151 0.163,-0.12C0.19,-0.088 0.224,-0.073 0.265,-0.073C0.305,-0.073 0.339,-0.088 0.366,-0.119C0.394,-0.15 0.407,-0.199 0.407,-0.266C0.407,-0.329 0.393,-0.377 0.365,-0.409C0.337,-0.441 0.303,-0.458 0.263,-0.458C0.224,-0.458 0.191,-0.442 0.164,-0.41C0.136,-0.378 0.123,-0.331 0.123,-0.269Z" style="fill:rgb(255,139,83);fill-rule:nonzero;"/>
            </g>
            <g transform="matrix(25.7742,0,0,25.7742,1945.52,231.9)">
                <path d="M0.258,-0.079L0.271,-0.001C0.246,0.004 0.224,0.007 0.204,0.007C0.172,0.007 0.147,0.002 0.13,-0.008C0.112,-0.018 0.1,-0.032 0.093,-0.048C0.086,-0.065 0.082,-0.099 0.082,-0.152L0.082,-0.45L0.018,-0.45L0.018,-0.519L0.082,-0.519L0.082,-0.647L0.169,-0.7L0.169,-0.519L0.258,-0.519L0.258,-0.45L0.169,-0.45L0.169,-0.147C0.169,-0.122 0.171,-0.106 0.174,-0.099C0.177,-0.091 0.182,-0.086 0.189,-0.082C0.196,-0.077 0.206,-0.075 0.219,-0.075C0.229,-0.075 0.242,-0.076 0.258,-0.079Z" style="fill:rgb(255,139,83);fill-rule:nonzero;"/>
            </g>
            <g transform="matrix(25.7742,0,0,25.7742,1952.68,231.9)">
                <path d="M0.066,-0L0.066,-0.716L0.154,-0.716L0.154,-0.459C0.195,-0.507 0.247,-0.53 0.309,-0.53C0.347,-0.53 0.381,-0.523 0.409,-0.508C0.438,-0.492 0.458,-0.472 0.47,-0.445C0.482,-0.418 0.488,-0.379 0.488,-0.329L0.488,-0L0.4,-0L0.4,-0.329C0.4,-0.373 0.391,-0.405 0.372,-0.425C0.353,-0.445 0.326,-0.455 0.291,-0.455C0.265,-0.455 0.24,-0.448 0.218,-0.434C0.195,-0.421 0.178,-0.403 0.168,-0.379C0.159,-0.356 0.154,-0.324 0.154,-0.284L0.154,-0L0.066,-0Z" style="fill:rgb(255,139,83);fill-rule:nonzero;"/>
            </g>
            <g transform="matrix(25.7742,0,0,25.7742,1974.18,231.9)">
                <path d="M0.503,-0.084L0.503,-0L0.03,-0C0.03,-0.021 0.033,-0.042 0.041,-0.061C0.053,-0.093 0.072,-0.125 0.098,-0.156C0.125,-0.188 0.163,-0.224 0.213,-0.265C0.291,-0.328 0.344,-0.379 0.371,-0.416C0.398,-0.454 0.412,-0.489 0.412,-0.522C0.412,-0.557 0.4,-0.586 0.375,-0.61C0.35,-0.634 0.317,-0.646 0.277,-0.646C0.235,-0.646 0.201,-0.633 0.176,-0.608C0.15,-0.583 0.138,-0.547 0.137,-0.502L0.047,-0.512C0.053,-0.579 0.076,-0.63 0.117,-0.666C0.157,-0.701 0.211,-0.719 0.279,-0.719C0.348,-0.719 0.402,-0.7 0.442,-0.662C0.482,-0.624 0.502,-0.576 0.502,-0.52C0.502,-0.491 0.497,-0.463 0.485,-0.436C0.473,-0.408 0.454,-0.379 0.427,-0.348C0.399,-0.318 0.354,-0.276 0.291,-0.222C0.238,-0.178 0.204,-0.148 0.189,-0.132C0.174,-0.116 0.162,-0.1 0.152,-0.084L0.503,-0.084Z" style="fill:rgb(255,139,83);fill-rule:nonzero;"/>
            </g>
        </g>
        <g transform="matrix(1.10439,0,0,1.11092,-65.5771,17.6286)">
            <g transform="matrix(25.7742,0,0,25.7742,1828,231.9)">
                <path d="M0.077,-0L0.077,-0.716L0.347,-0.716C0.395,-0.716 0.431,-0.714 0.456,-0.709C0.491,-0.703 0.521,-0.692 0.544,-0.676C0.568,-0.659 0.587,-0.636 0.602,-0.606C0.616,-0.577 0.624,-0.544 0.624,-0.509C0.624,-0.448 0.604,-0.396 0.565,-0.354C0.527,-0.312 0.457,-0.291 0.355,-0.291L0.172,-0.291L0.172,-0L0.077,-0ZM0.172,-0.375L0.357,-0.375C0.418,-0.375 0.462,-0.387 0.487,-0.41C0.513,-0.432 0.526,-0.465 0.526,-0.506C0.526,-0.536 0.518,-0.561 0.503,-0.583C0.488,-0.604 0.468,-0.618 0.443,-0.625C0.427,-0.629 0.398,-0.631 0.355,-0.631L0.172,-0.631L0.172,-0.375Z" style="fill:rgb(236,112,121);fill-rule:nonzero;"/>
            </g>
            <g transform="matrix(25.7742,0,0,25.7742,1845.19,231.9)">
                <path d="M0.404,-0.064C0.372,-0.036 0.34,-0.017 0.31,-0.005C0.28,0.006 0.248,0.012 0.213,0.012C0.156,0.012 0.113,-0.002 0.082,-0.03C0.051,-0.058 0.036,-0.093 0.036,-0.137C0.036,-0.162 0.042,-0.185 0.053,-0.206C0.065,-0.227 0.08,-0.244 0.099,-0.257C0.118,-0.27 0.139,-0.279 0.162,-0.286C0.179,-0.29 0.205,-0.295 0.24,-0.299C0.311,-0.307 0.363,-0.317 0.397,-0.329C0.397,-0.341 0.397,-0.349 0.397,-0.352C0.397,-0.388 0.389,-0.413 0.373,-0.428C0.35,-0.448 0.317,-0.458 0.272,-0.458C0.231,-0.458 0.201,-0.45 0.181,-0.436C0.161,-0.421 0.147,-0.396 0.137,-0.359L0.051,-0.371C0.059,-0.407 0.072,-0.437 0.09,-0.46C0.108,-0.482 0.134,-0.5 0.167,-0.512C0.201,-0.524 0.241,-0.53 0.285,-0.53C0.329,-0.53 0.365,-0.525 0.393,-0.515C0.421,-0.504 0.441,-0.491 0.454,-0.475C0.467,-0.46 0.476,-0.44 0.481,-0.416C0.484,-0.401 0.486,-0.374 0.486,-0.334L0.486,-0.217C0.486,-0.136 0.488,-0.084 0.491,-0.062C0.495,-0.041 0.503,-0.02 0.514,-0L0.422,-0C0.413,-0.018 0.407,-0.04 0.404,-0.064ZM0.397,-0.26C0.365,-0.247 0.317,-0.236 0.253,-0.227C0.217,-0.222 0.192,-0.216 0.177,-0.209C0.162,-0.203 0.15,-0.193 0.142,-0.181C0.134,-0.168 0.13,-0.154 0.13,-0.139C0.13,-0.116 0.139,-0.096 0.156,-0.081C0.174,-0.065 0.2,-0.057 0.234,-0.057C0.268,-0.057 0.298,-0.065 0.325,-0.079C0.351,-0.094 0.37,-0.114 0.383,-0.14C0.392,-0.16 0.397,-0.189 0.397,-0.228L0.397,-0.26Z" style="fill:rgb(236,112,121);fill-rule:nonzero;"/>
            </g>
            <g transform="matrix(25.7742,0,0,25.7742,1859.53,231.9)">
                <path d="M0.258,-0.079L0.271,-0.001C0.246,0.004 0.224,0.007 0.204,0.007C0.172,0.007 0.147,0.002 0.13,-0.008C0.112,-0.018 0.1,-0.032 0.093,-0.048C0.086,-0.065 0.082,-0.099 0.082,-0.152L0.082,-0.45L0.018,-0.45L0.018,-0.519L0.082,-0.519L0.082,-0.647L0.169,-0.7L0.169,-0.519L0.258,-0.519L0.258,-0.45L0.169,-0.45L0.169,-0.147C0.169,-0.122 0.171,-0.106 0.174,-0.099C0.177,-0.091 0.182,-0.086 0.189,-0.082C0.196,-0.077 0.206,-0.075 0.219,-0.075C0.229,-0.075 0.242,-0.076 0.258,-0.079Z" style="fill:rgb(236,112,121);fill-rule:nonzero;"/>
            </g>
            <g transform="matrix(25.7742,0,0,25.7742,1866.69,231.9)">
                <path d="M0.066,-0L0.066,-0.716L0.154,-0.716L0.154,-0.459C0.195,-0.507 0.247,-0.53 0.309,-0.53C0.347,-0.53 0.381,-0.523 0.409,-0.508C0.438,-0.492 0.458,-0.472 0.47,-0.445C0.482,-0.418 0.488,-0.379 0.488,-0.329L0.488,-0L0.4,-0L0.4,-0.329C0.4,-0.373 0.391,-0.405 0.372,-0.425C0.353,-0.445 0.326,-0.455 0.291,-0.455C0.265,-0.455 0.24,-0.448 0.218,-0.434C0.195,-0.421 0.178,-0.403 0.168,-0.379C0.159,-0.356 0.154,-0.324 0.154,-0.284L0.154,-0L0.066,-0Z" style="fill:rgb(236,112,121);fill-rule:nonzero;"/>
            </g>
            <g transform="matrix(25.7742,0,0,25.7742,1888.18,231.9)">
                <path d="M0.073,-0L0.073,-0.716L0.168,-0.716L0.168,-0.084L0.521,-0.084L0.521,-0L0.073,-0Z" style="fill:rgb(236,112,121);fill-rule:nonzero;"/>
            </g>
            <g transform="matrix(25.7742,0,0,25.7742,1902.52,231.9)">
                <path d="M0.421,-0.167L0.512,-0.156C0.497,-0.103 0.471,-0.062 0.432,-0.032C0.393,-0.003 0.344,0.012 0.284,0.012C0.208,0.012 0.148,-0.012 0.103,-0.058C0.059,-0.105 0.037,-0.171 0.037,-0.255C0.037,-0.342 0.059,-0.41 0.104,-0.458C0.149,-0.506 0.207,-0.53 0.279,-0.53C0.348,-0.53 0.405,-0.507 0.449,-0.459C0.493,-0.412 0.515,-0.346 0.515,-0.26C0.515,-0.255 0.514,-0.247 0.514,-0.237L0.127,-0.237C0.131,-0.18 0.147,-0.136 0.176,-0.106C0.205,-0.076 0.241,-0.061 0.284,-0.061C0.316,-0.061 0.344,-0.069 0.367,-0.086C0.389,-0.103 0.408,-0.13 0.421,-0.167ZM0.132,-0.309L0.422,-0.309C0.418,-0.353 0.407,-0.385 0.389,-0.407C0.361,-0.441 0.324,-0.458 0.28,-0.458C0.239,-0.458 0.205,-0.444 0.178,-0.417C0.15,-0.39 0.135,-0.354 0.132,-0.309Z" style="fill:rgb(236,112,121);fill-rule:nonzero;"/>
            </g>
            <g transform="matrix(25.7742,0,0,25.7742,1916.85,231.9)">
                <path d="M0.066,-0L0.066,-0.519L0.145,-0.519L0.145,-0.445C0.183,-0.502 0.238,-0.53 0.31,-0.53C0.341,-0.53 0.37,-0.525 0.396,-0.513C0.422,-0.502 0.442,-0.487 0.455,-0.469C0.468,-0.451 0.477,-0.429 0.482,-0.404C0.486,-0.388 0.487,-0.36 0.487,-0.319L0.487,-0L0.399,-0L0.399,-0.315C0.399,-0.351 0.396,-0.378 0.389,-0.396C0.382,-0.413 0.37,-0.428 0.353,-0.438C0.335,-0.449 0.315,-0.454 0.292,-0.454C0.254,-0.454 0.222,-0.442 0.195,-0.418C0.167,-0.395 0.154,-0.35 0.154,-0.283L0.154,-0L0.066,-0Z" style="fill:rgb(236,112,121);fill-rule:nonzero;"/>
            </g>
            <g transform="matrix(25.7742,0,0,25.7742,1931.19,231.9)">
                <path d="M0.05,0.043L0.135,0.056C0.139,0.082 0.149,0.101 0.165,0.113C0.187,0.13 0.217,0.138 0.254,0.138C0.295,0.138 0.326,0.13 0.349,0.113C0.371,0.097 0.386,0.074 0.394,0.045C0.398,0.027 0.4,-0.011 0.4,-0.068C0.361,-0.023 0.314,-0 0.256,-0C0.185,-0 0.13,-0.026 0.091,-0.077C0.052,-0.129 0.032,-0.19 0.032,-0.262C0.032,-0.312 0.041,-0.357 0.059,-0.399C0.077,-0.441 0.103,-0.473 0.137,-0.496C0.171,-0.519 0.211,-0.53 0.257,-0.53C0.318,-0.53 0.368,-0.506 0.408,-0.456L0.408,-0.519L0.489,-0.519L0.489,-0.07C0.489,0.01 0.481,0.068 0.465,0.101C0.448,0.135 0.422,0.162 0.386,0.181C0.351,0.201 0.307,0.21 0.255,0.21C0.193,0.21 0.143,0.197 0.105,0.169C0.067,0.141 0.049,0.099 0.05,0.043ZM0.123,-0.269C0.123,-0.201 0.136,-0.151 0.163,-0.12C0.19,-0.088 0.224,-0.073 0.265,-0.073C0.305,-0.073 0.339,-0.088 0.366,-0.119C0.394,-0.15 0.407,-0.199 0.407,-0.266C0.407,-0.329 0.393,-0.377 0.365,-0.409C0.337,-0.441 0.303,-0.458 0.263,-0.458C0.224,-0.458 0.191,-0.442 0.164,-0.41C0.136,-0.378 0.123,-0.331 0.123,-0.269Z" style="fill:rgb(236,112,121);fill-rule:nonzero;"/>
            </g>
            <g transform="matrix(25.7742,0,0,25.7742,1945.52,231.9)">
                <path d="M0.258,-0.079L0.271,-0.001C0.246,0.004 0.224,0.007 0.204,0.007C0.172,0.007 0.147,0.002 0.13,-0.008C0.112,-0.018 0.1,-0.032 0.093,-0.048C0.086,-0.065 0.082,-0.099 0.082,-0.152L0.082,-0.45L0.018,-0.45L0.018,-0.519L0.082,-0.519L0.082,-0.647L0.169,-0.7L0.169,-0.519L0.258,-0.519L0.258,-0.45L0.169,-0.45L0.169,-0.147C0.169,-0.122 0.171,-0.106 0.174,-0.099C0.177,-0.091 0.182,-0.086 0.189,-0.082C0.196,-0.077 0.206,-0.075 0.219,-0.075C0.229,-0.075 0.242,-0.076 0.258,-0.079Z" style="fill:rgb(236,112,121);fill-rule:nonzero;"/>
            </g>
            <g transform="matrix(25.7742,0,0,25.7742,1952.68,231.9)">
                <path d="M0.066,-0L0.066,-0.716L0.154,-0.716L0.154,-0.459C0.195,-0.507 0.247,-0.53 0.309,-0.53C0.347,-0.53 0.381,-0.523 0.409,-0.508C0.438,-0.492 0.458,-0.472 0.47,-0.445C0.482,-0.418 0.488,-0.379 0.488,-0.329L0.488,-0L0.4,-0L0.4,-0.329C0.4,-0.373 0.391,-0.405 0.372,-0.425C0.353,-0.445 0.326,-0.455 0.291,-0.455C0.265,-0.455 0.24,-0.448 0.218,-0.434C0.195,-0.421 0.178,-0.403 0.168,-0.379C0.159,-0.356 0.154,-0.324 0.154,-0.284L0.154,-0L0.066,-0Z" style="fill:rgb(236,112,121);fill-rule:nonzero;"/>
            </g>
            <g transform="matrix(25.7742,0,0,25.7742,1974.18,231.9)">
                <path d="M0.042,-0.188L0.134,-0.195C0.141,-0.15 0.156,-0.117 0.181,-0.094C0.206,-0.071 0.236,-0.06 0.271,-0.06C0.314,-0.06 0.35,-0.076 0.379,-0.108C0.408,-0.14 0.423,-0.182 0.423,-0.235C0.423,-0.285 0.409,-0.325 0.381,-0.354C0.352,-0.382 0.316,-0.397 0.27,-0.397C0.242,-0.397 0.216,-0.391 0.193,-0.378C0.171,-0.365 0.153,-0.348 0.14,-0.328L0.057,-0.338L0.126,-0.706L0.482,-0.706L0.482,-0.622L0.197,-0.622L0.158,-0.43C0.201,-0.46 0.246,-0.475 0.293,-0.475C0.356,-0.475 0.409,-0.453 0.452,-0.41C0.495,-0.366 0.516,-0.311 0.516,-0.243C0.516,-0.178 0.497,-0.122 0.459,-0.075C0.414,-0.017 0.351,0.012 0.271,0.012C0.206,0.012 0.153,-0.006 0.112,-0.042C0.071,-0.079 0.047,-0.127 0.042,-0.188Z" style="fill:rgb(236,112,121);fill-rule:nonzero;"/>
            </g>
        </g>
        <g transform="matrix(0.973521,-0.014803,-0.014803,0.991724,59.1071,33.0438)">
            <path d="M2159,131L2233.14,172.446" style="fill:none;stroke:rgb(255,139,83);stroke-width:8.61px;"/>
        </g>
        <g transform="matrix(0.815967,-0.677757,0.657358,0.576734,382.242,1519.77)">
            <path d="M2133,168L2211,189" style="fill:none;stroke:rgb(255,139,83);stroke-width:7.98px;"/>
        </g>
    </g>
</svg>
