<?xml version="1.0" encoding="UTF-8" standalone="no"?>
<!DOCTYPE svg PUBLIC "-//W3C//DTD SVG 1.1//EN" "http://www.w3.org/Graphics/SVG/1.1/DTD/svg11.dtd">
<svg width="100%" height="100%" viewBox="0 0 651 275" version="1.1" xmlns="http://www.w3.org/2000/svg" xmlns:xlink="http://www.w3.org/1999/xlink" xml:space="preserve" xmlns:serif="http://www.serif.com/" style="fill-rule:evenodd;clip-rule:evenodd;stroke-linecap:round;stroke-linejoin:round;stroke-miterlimit:1.5;">
    <g transform="matrix(1,0,0,1,-1788.41,-157.072)">
        <g transform="matrix(0.548431,0,0,0.510066,1223.51,-10.4902)">
            <path d="M1298,489.527L1298,575" style="fill:none;stroke:rgb(162,162,162);stroke-width:7.87px;"/>
        </g>
        <g transform="matrix(0.548431,0,0,0.510066,1223.51,-10.4902)">
            <path d="M1298,458.112L1298,376.527" style="fill:none;stroke:rgb(162,162,162);stroke-width:7.87px;"/>
        </g>
        <g transform="matrix(0.548431,0,0,0.510066,1223.51,-10.4902)">
            <path d="M1313,473.264L1402.34,473.264" style="fill:none;stroke:rgb(162,162,162);stroke-width:7.87px;"/>
        </g>
        <g transform="matrix(0.548431,0,0,0.510066,1223.51,-10.4902)">
            <path d="M1310,462L1374,410" style="fill:none;stroke:rgb(162,162,162);stroke-width:7.87px;"/>
        </g>
        <g transform="matrix(0.548431,0,0,0.510066,1223.51,-10.4902)">
            <path d="M1288,462L1219,410" style="fill:none;stroke:rgb(162,162,162);stroke-width:7.87px;"/>
        </g>
        <g transform="matrix(0.548431,0,0,0.510066,1223.51,-10.4902)">
            <path d="M1288,484L1222,541" style="fill:none;stroke:rgb(162,162,162);stroke-width:7.87px;"/>
        </g>
        <g transform="matrix(0.548431,0,0,0.510066,1223.51,-10.4902)">
            <path d="M1310,484L1374,541" style="fill:none;stroke:rgb(162,162,162);stroke-width:7.87px;"/>
        </g>
        <g transform="matrix(0.548431,0,0,0.510066,1223.51,-10.4902)">
            <path d="M1192,473.264L1281.34,473.264" style="fill:none;stroke:rgb(162,162,162);stroke-width:7.87px;"/>
        </g>
        <g transform="matrix(0.70236,0,0,0.63748,1679.85,142.206)">
            <circle cx="363.807" cy="139.141" r="13.013" style="fill:rgb(236,112,121);stroke:rgb(236,112,121);stroke-width:4.87px;"/>
        </g>
        <g transform="matrix(0.70236,0,0,0.63748,1679.85,200.978)">
            <circle cx="363.807" cy="139.141" r="13.013" style="fill:rgb(92,92,92);stroke:rgb(92,92,92);stroke-width:4.87px;"/>
        </g>
        <g transform="matrix(0.70236,0,0,0.63748,1631.77,181.481)">
            <circle cx="363.807" cy="139.141" r="13.013" style="fill:rgb(92,92,92);stroke:rgb(92,92,92);stroke-width:4.87px;"/>
        </g>
        <g transform="matrix(0.70236,0,0,0.63748,1727.38,181.481)">
            <circle cx="363.807" cy="139.141" r="13.013" style="fill:rgb(92,92,92);stroke:rgb(92,92,92);stroke-width:4.87px;"/>
        </g>
        <g transform="matrix(0.70236,0,0,0.63748,1746.21,142.773)">
            <circle cx="363.807" cy="139.141" r="13.013" style="fill:rgb(92,92,92);stroke:rgb(92,92,92);stroke-width:4.87px;"/>
        </g>
        <g transform="matrix(0.70236,0,0,0.63748,1613.49,142.773)">
            <circle cx="363.807" cy="139.141" r="13.013" style="fill:rgb(92,92,92);stroke:rgb(92,92,92);stroke-width:4.87px;"/>
        </g>
        <g transform="matrix(0.70236,0,0,0.63748,1631.77,103.951)">
            <circle cx="363.807" cy="139.141" r="13.013" style="fill:rgb(92,92,92);stroke:rgb(92,92,92);stroke-width:4.87px;"/>
        </g>
        <g transform="matrix(0.70236,0,0,0.63748,1679.85,84.5686)">
            <circle cx="363.807" cy="139.141" r="13.013" style="fill:rgb(92,92,92);stroke:rgb(92,92,92);stroke-width:4.87px;"/>
        </g>
        <g transform="matrix(0.70236,0,0,0.63748,1727.38,103.951)">
            <circle cx="363.807" cy="139.141" r="13.013" style="fill:rgb(92,92,92);stroke:rgb(92,92,92);stroke-width:4.87px;"/>
        </g>
        <g transform="matrix(1,0,0,1,1628.71,38.4033)">
            <path d="M591,262L628,248.296" style="fill:none;stroke:rgb(162,162,162);stroke-width:4.17px;"/>
        </g>
        <g transform="matrix(1,0,0,1,1628.71,38.4033)">
            <path d="M569,299L580,273" style="fill:none;stroke:rgb(162,162,162);stroke-width:4.17px;"/>
        </g>
        <g transform="matrix(1,0,0,1,1628.71,38.4033)">
            <path d="M569,314.796L580,340" style="fill:none;stroke:rgb(162,162,162);stroke-width:4.17px;"/>
        </g>
        <g transform="matrix(1,0,0,1,1628.71,38.4033)">
            <path d="M572,304.956L629,254" style="fill:none;stroke:rgb(162,162,162);stroke-width:4.17px;"/>
        </g>
        <g transform="matrix(1,0,0,1,1628.71,38.4033)">
            <path d="M591,267L675,267.678" style="fill:none;stroke:rgb(162,162,162);stroke-width:4.17px;"/>
        </g>
        <g transform="matrix(1,0,0,1,1628.71,38.4033)">
            <path d="M591,350L628,364.704" style="fill:none;stroke:rgb(162,162,162);stroke-width:4.17px;"/>
        </g>
        <g transform="matrix(1,0,0,1,1628.71,38.4033)">
            <path d="M641,364.704L675,350" style="fill:none;stroke:rgb(162,162,162);stroke-width:4.17px;"/>
        </g>
        <g transform="matrix(1,0,0,1,1628.71,38.4033)">
            <path d="M686,339L697,313" style="fill:none;stroke:rgb(162,162,162);stroke-width:4.17px;"/>
        </g>
        <g transform="matrix(1,0,0,1,1628.71,38.4033)">
            <path d="M697,298.204L684,273" style="fill:none;stroke:rgb(162,162,162);stroke-width:4.17px;"/>
        </g>
        <g transform="matrix(1,0,0,1,1628.71,38.4033)">
            <path d="M641,250L675,264" style="fill:none;stroke:rgb(162,162,162);stroke-width:4.17px;"/>
        </g>
        <g transform="matrix(1,0,0,1,1628.71,38.4033)">
            <path d="M638,253L697,306.5" style="fill:none;stroke:rgb(162,162,162);stroke-width:4.17px;"/>
        </g>
        <g transform="matrix(1,0,0,1,1628.71,38.4033)">
            <path d="M636,360L693,306.5" style="fill:none;stroke:rgb(162,162,162);stroke-width:4.17px;"/>
        </g>
        <g transform="matrix(1,0,0,1,1628.71,38.4033)">
            <path d="M591,345.208L674,345.208" style="fill:none;stroke:rgb(162,162,162);stroke-width:4.17px;"/>
        </g>
        <g transform="matrix(1,0,0,1,1628.71,38.4033)">
            <path d="M572,309L630,362" style="fill:none;stroke:rgb(162,162,162);stroke-width:4.17px;"/>
        </g>
        <g transform="matrix(1,0,0,1,1629.13,38.4033)">
            <path d="M585,273L585.419,336.912" style="fill:none;stroke:rgb(162,162,162);stroke-width:4.17px;"/>
        </g>
        <g transform="matrix(0.637559,-0.770456,1.33139,1.08513,1481.43,466.285)">
            <path d="M585,273L585.419,336.912" style="fill:none;stroke:rgb(162,162,162);stroke-width:2.96px;"/>
        </g>
        <g transform="matrix(0.70236,0,0,0.63748,2006.68,314.408)">
            <circle cx="363.807" cy="139.141" r="13.013" style="fill:rgb(92,92,92);stroke:rgb(92,92,92);stroke-width:4.87px;"/>
        </g>
        <g transform="matrix(0.70236,0,0,0.63748,1958.6,294.912)">
            <circle cx="363.807" cy="139.141" r="13.013" style="fill:rgb(92,92,92);stroke:rgb(92,92,92);stroke-width:4.87px;"/>
        </g>
        <g transform="matrix(0.70236,0,0,0.63748,2073.04,256.204)">
            <circle cx="363.807" cy="139.141" r="13.013" style="fill:rgb(92,92,92);stroke:rgb(92,92,92);stroke-width:4.87px;"/>
        </g>
        <g transform="matrix(0.70236,0,0,0.63748,2054.21,294.912)">
            <circle cx="363.807" cy="139.141" r="13.013" style="fill:rgb(92,92,92);stroke:rgb(92,92,92);stroke-width:4.87px;"/>
        </g>
        <g transform="matrix(0.70236,0,0,0.63748,1940.32,256.204)">
            <circle cx="363.807" cy="139.141" r="13.013" style="fill:rgb(92,92,92);stroke:rgb(92,92,92);stroke-width:4.87px;"/>
        </g>
        <g transform="matrix(0.70236,0,0,0.63748,1958.6,217.382)">
            <circle cx="363.807" cy="139.141" r="13.013" style="fill:rgb(92,92,92);stroke:rgb(92,92,92);stroke-width:4.87px;"/>
        </g>
        <g transform="matrix(0.70236,0,0,0.63748,2054.21,217.382)">
            <circle cx="363.807" cy="139.141" r="13.013" style="fill:rgb(92,92,92);stroke:rgb(92,92,92);stroke-width:4.87px;"/>
        </g>
        <g transform="matrix(1,0,0,1,1628.71,38.4033)">
            <path d="M591,262L628,248.296" style="fill:none;stroke:rgb(162,162,162);stroke-width:4.17px;"/>
        </g>
        <g transform="matrix(1,0,0,1,1628.71,38.4033)">
            <path d="M569,299L580,273" style="fill:none;stroke:rgb(162,162,162);stroke-width:4.17px;"/>
        </g>
        <g transform="matrix(1,0,0,1,1628.71,38.4033)">
            <path d="M569,314.796L580,340" style="fill:none;stroke:rgb(162,162,162);stroke-width:4.17px;"/>
        </g>
        <g transform="matrix(1,0,0,1,1628.71,38.4033)">
            <path d="M572,304.956L629,254" style="fill:none;stroke:rgb(162,162,162);stroke-width:4.17px;"/>
        </g>
        <g transform="matrix(1,0,0,1,1628.71,38.4033)">
            <path d="M591,267L675,267.678" style="fill:none;stroke:rgb(162,162,162);stroke-width:4.17px;"/>
        </g>
        <g transform="matrix(1,0,0,1,1628.71,38.4033)">
            <path d="M591,350L628,364.704" style="fill:none;stroke:rgb(162,162,162);stroke-width:4.17px;"/>
        </g>
        <g transform="matrix(1,0,0,1,1628.71,38.4033)">
            <path d="M641,364.704L675,350" style="fill:none;stroke:rgb(162,162,162);stroke-width:4.17px;"/>
        </g>
        <g transform="matrix(1,0,0,1,1628.71,38.4033)">
            <path d="M686,339L697,313" style="fill:none;stroke:rgb(162,162,162);stroke-width:4.17px;"/>
        </g>
        <g transform="matrix(1,0,0,1,1628.71,38.4033)">
            <path d="M697,298.204L684,273" style="fill:none;stroke:rgb(162,162,162);stroke-width:4.17px;"/>
        </g>
        <g transform="matrix(1,0,0,1,1628.71,38.4033)">
            <path d="M641,250L675,264" style="fill:none;stroke:rgb(162,162,162);stroke-width:4.17px;"/>
        </g>
        <g transform="matrix(1,0,0,1,1628.71,38.4033)">
            <path d="M638,253L697,306.5" style="fill:none;stroke:rgb(162,162,162);stroke-width:4.17px;"/>
        </g>
        <g transform="matrix(1,0,0,1,1628.71,38.4033)">
            <path d="M636,360L693,306.5" style="fill:none;stroke:rgb(162,162,162);stroke-width:4.17px;"/>
        </g>
        <g transform="matrix(1,0,0,1,1628.71,38.4033)">
            <path d="M591,345.208L674,345.208" style="fill:none;stroke:rgb(162,162,162);stroke-width:4.17px;"/>
        </g>
        <g transform="matrix(1,0,0,1,1628.71,38.4033)">
            <path d="M572,309L630,362" style="fill:none;stroke:rgb(162,162,162);stroke-width:4.17px;"/>
        </g>
        <g transform="matrix(0.70236,0,0,0.63748,2006.68,314.408)">
            <circle cx="363.807" cy="139.141" r="13.013" style="fill:rgb(92,92,92);stroke:rgb(92,92,92);stroke-width:4.87px;"/>
        </g>
        <g transform="matrix(0.70236,0,0,0.63748,1958.6,294.912)">
            <circle cx="363.807" cy="139.141" r="13.013" style="fill:rgb(92,92,92);stroke:rgb(92,92,92);stroke-width:4.87px;"/>
        </g>
        <g transform="matrix(0.70236,0,0,0.63748,2073.04,256.204)">
            <circle cx="363.807" cy="139.141" r="13.013" style="fill:rgb(92,92,92);stroke:rgb(92,92,92);stroke-width:4.87px;"/>
        </g>
        <g transform="matrix(0.70236,0,0,0.63748,2054.21,294.912)">
            <circle cx="363.807" cy="139.141" r="13.013" style="fill:rgb(92,92,92);stroke:rgb(92,92,92);stroke-width:4.87px;"/>
        </g>
        <g transform="matrix(0.70236,0,0,0.63748,1940.32,256.204)">
            <circle cx="363.807" cy="139.141" r="13.013" style="fill:rgb(92,92,92);stroke:rgb(92,92,92);stroke-width:4.87px;"/>
        </g>
        <g transform="matrix(0.70236,0,0,0.63748,1958.6,217.382)">
            <circle cx="363.807" cy="139.141" r="13.013" style="fill:rgb(236,112,121);stroke:rgb(236,112,121);stroke-width:4.87px;"/>
        </g>
        <g transform="matrix(0.70236,0,0,0.63748,2054.21,217.382)">
            <circle cx="363.807" cy="139.141" r="13.013" style="fill:rgb(92,92,92);stroke:rgb(92,92,92);stroke-width:4.87px;"/>
        </g>
        <g transform="matrix(0.70236,0,0,0.63748,2006.68,197.999)">
            <circle cx="363.807" cy="139.141" r="13.013" style="fill:rgb(92,92,92);stroke:rgb(92,92,92);stroke-width:4.87px;"/>
        </g>
        <g transform="matrix(1,0,0,1,1145.68,133.401)">
            <text x="655.826px" y="213px" style="font-family:'ArialMT', 'Arial', sans-serif;font-size:37.5px;fill:rgb(236,112,121);">high centralization</text>
            <text x="652.027px" y="251.727px" style="font-family:'ArialMT', 'Arial', sans-serif;font-size:37.5px;fill:rgb(236,112,121);">(dif<tspan x="703.443px 713.862px " y="251.727px 251.727px ">fe</tspan>rence of most</text>
            <g transform="matrix(37.5,0,0,37.5,972.663,290.454)">
            </g>
            <text x="641.26px" y="290.454px" style="font-family:'ArialMT', 'Arial', sans-serif;font-size:37.5px;fill:rgb(236,112,121);">central point to rest)</text>
        </g>
        <g transform="matrix(1,0,0,1,1467.66,-29.0844)">
            <text x="663.141px" y="213px" style="font-family:'ArialMT', 'Arial', sans-serif;font-size:37.5px;fill:rgb(236,112,121);">low centralization</text>
            <text x="652.027px" y="251.727px" style="font-family:'ArialMT', 'Arial', sans-serif;font-size:37.5px;fill:rgb(236,112,121);">(dif<tspan x="703.443px 713.862px " y="251.727px 251.727px ">fe</tspan>rence of most</text>
            <g transform="matrix(37.5,0,0,37.5,972.663,290.454)">
            </g>
            <text x="641.26px" y="290.454px" style="font-family:'ArialMT', 'Arial', sans-serif;font-size:37.5px;fill:rgb(236,112,121);">central point to rest)</text>
        </g>
    </g>
</svg>
