<?xml version="1.0" encoding="UTF-8" standalone="no"?>
<!DOCTYPE svg PUBLIC "-//W3C//DTD SVG 1.1//EN" "http://www.w3.org/Graphics/SVG/1.1/DTD/svg11.dtd">
<svg width="100%" height="100%" viewBox="0 0 554 320" version="1.1" xmlns="http://www.w3.org/2000/svg" xmlns:xlink="http://www.w3.org/1999/xlink" xml:space="preserve" xmlns:serif="http://www.serif.com/" style="fill-rule:evenodd;clip-rule:evenodd;stroke-linecap:round;stroke-linejoin:round;stroke-miterlimit:1.5;">
    <g transform="matrix(1,0,0,1,-990.495,-132.257)">
        <g transform="matrix(1,0,0,1,93.1092,-8.76715)">
            <path d="M990,242.912L1032,159" style="fill:none;stroke:rgb(162,162,162);stroke-width:4.17px;"/>
        </g>
        <g transform="matrix(1,0,0,1,495.109,-102.767)">
            <path d="M591,345.208L674,345.208" style="fill:none;stroke:rgb(162,162,162);stroke-width:4.17px;"/>
        </g>
        <g transform="matrix(1,0,0,1,499.242,95.4592)">
            <text x="583.426px" y="213px" style="font-family:'ArialMT', 'Arial', sans-serif;font-size:37.5px;fill:rgb(236,112,121);">large</text>
            <g transform="matrix(37.5,0,0,37.5,611.579,251.727)">
            </g>
            <g transform="matrix(37.5,0,0,37.5,621.998,251.727)">
            </g>
            <g transform="matrix(37.5,0,0,37.5,709.54,251.727)">
            </g>
            <text x="540.699px" y="251.727px" style="font-family:'ArialMT', 'Arial', sans-serif;font-size:37.5px;fill:rgb(236,112,121);">coefﬁcient</text>
        </g>
        <g transform="matrix(1,0,0,1,810.276,-53.8996)">
            <text x="581.366px" y="213px" style="font-family:'ArialMT', 'Arial', sans-serif;font-size:37.5px;fill:rgb(236,112,121);">small</text>
            <g transform="matrix(37.5,0,0,37.5,611.579,251.727)">
            </g>
            <g transform="matrix(37.5,0,0,37.5,621.998,251.727)">
            </g>
            <g transform="matrix(37.5,0,0,37.5,709.54,251.727)">
            </g>
            <text x="540.699px" y="251.727px" style="font-family:'ArialMT', 'Arial', sans-serif;font-size:37.5px;fill:rgb(236,112,121);">coefﬁcient</text>
        </g>
        <g transform="matrix(1,0,0,1,495.109,-102.767)">
            <path d="M591,262L628,248.296" style="fill:none;stroke:rgb(162,162,162);stroke-width:4.17px;"/>
        </g>
        <g transform="matrix(1,0,0,1,495.109,-102.767)">
            <path d="M569,299L580,273" style="fill:none;stroke:rgb(162,162,162);stroke-width:4.17px;"/>
        </g>
        <g transform="matrix(1,0,0,1,495.109,-102.767)">
            <path d="M569,314.796L580,340" style="fill:none;stroke:rgb(162,162,162);stroke-width:4.17px;"/>
        </g>
        <g transform="matrix(1,0,0,1,492.109,-103.767)">
            <path d="M572,304.956L629,254" style="fill:none;stroke:rgb(162,162,162);stroke-width:4.17px;"/>
        </g>
        <g transform="matrix(1,0,0,1,495.109,-102.767)">
            <path d="M591,267L675,267.678" style="fill:none;stroke:rgb(162,162,162);stroke-width:4.17px;"/>
        </g>
        <g transform="matrix(1,0,0,1,495.109,-102.767)">
            <path d="M591,350L628,364.704" style="fill:none;stroke:rgb(162,162,162);stroke-width:4.17px;"/>
        </g>
        <g transform="matrix(1,0,0,1,495.109,-102.767)">
            <path d="M641,364.704L675,350" style="fill:none;stroke:rgb(162,162,162);stroke-width:4.17px;"/>
        </g>
        <g transform="matrix(1,0,0,1,495.109,-102.767)">
            <path d="M686,339L697,313" style="fill:none;stroke:rgb(162,162,162);stroke-width:4.17px;"/>
        </g>
        <g transform="matrix(1,0,0,1,495.109,-102.767)">
            <path d="M697,298.204L684,273" style="fill:none;stroke:rgb(162,162,162);stroke-width:4.17px;"/>
        </g>
        <g transform="matrix(1,0,0,1,495.109,-102.767)">
            <path d="M641,250L675,264" style="fill:none;stroke:rgb(162,162,162);stroke-width:4.17px;"/>
        </g>
        <g transform="matrix(1,0,0,1,93.1092,-8.76715)">
            <path d="M976.5,208L1079,175" style="fill:none;stroke:rgb(162,162,162);stroke-width:4.17px;"/>
        </g>
        <g transform="matrix(1,0,0,1,93.1092,-8.76715)">
            <path d="M1083.03,179L1038,263.352" style="fill:none;stroke:rgb(162,162,162);stroke-width:4.17px;"/>
        </g>
        <g transform="matrix(1,0,0,1,495.109,-102.767)">
            <path d="M681.03,273L681.03,340" style="fill:none;stroke:rgb(162,162,162);stroke-width:4.17px;"/>
        </g>
        <g transform="matrix(1,0,0,1,495.109,-102.767)">
            <path d="M636,360L693,306.5" style="fill:none;stroke:rgb(162,162,162);stroke-width:4.17px;"/>
        </g>
        <g transform="matrix(1,0,0,1,495.109,-102.767)">
            <path d="M591,345.208L674,345.208" style="fill:none;stroke:rgb(162,162,162);stroke-width:4.17px;"/>
        </g>
        <g transform="matrix(1,0,0,1,495.109,-102.767)">
            <path d="M572,309L630,362" style="fill:none;stroke:rgb(162,162,162);stroke-width:4.17px;"/>
        </g>
        <g transform="matrix(1,0,0,1,495.529,-102.767)">
            <path d="M585,273L585.419,336.912" style="fill:none;stroke:rgb(162,162,162);stroke-width:4.17px;"/>
        </g>
        <g transform="matrix(0.70236,0,0,0.63748,873.085,173.238)">
            <circle cx="363.807" cy="139.141" r="13.013" style="fill:rgb(92,92,92);stroke:rgb(92,92,92);stroke-width:4.87px;"/>
        </g>
        <g transform="matrix(0.70236,0,0,0.63748,825.005,153.741)">
            <circle cx="363.807" cy="139.141" r="13.013" style="fill:rgb(92,92,92);stroke:rgb(92,92,92);stroke-width:4.87px;"/>
        </g>
        <g transform="matrix(0.70236,0,0,0.63748,939.446,115.033)">
            <circle cx="363.807" cy="139.141" r="13.013" style="fill:rgb(92,92,92);stroke:rgb(92,92,92);stroke-width:4.87px;"/>
        </g>
        <g transform="matrix(0.70236,0,0,0.63748,920.615,153.741)">
            <circle cx="363.807" cy="139.141" r="13.013" style="fill:rgb(92,92,92);stroke:rgb(92,92,92);stroke-width:4.87px;"/>
        </g>
        <g transform="matrix(0.70236,0,0,0.63748,806.725,115.033)">
            <circle cx="363.807" cy="139.141" r="13.013" style="fill:rgb(92,92,92);stroke:rgb(92,92,92);stroke-width:4.87px;"/>
        </g>
        <g transform="matrix(0.70236,0,0,0.63748,825.005,76.2115)">
            <circle cx="363.807" cy="139.141" r="13.013" style="fill:rgb(92,92,92);stroke:rgb(92,92,92);stroke-width:4.87px;"/>
        </g>
        <g transform="matrix(0.70236,0,0,0.63748,920.615,76.2115)">
            <circle cx="363.807" cy="139.141" r="13.013" style="fill:rgb(92,92,92);stroke:rgb(92,92,92);stroke-width:4.87px;"/>
        </g>
        <g transform="matrix(1,0,0,1,495.109,-102.767)">
            <path d="M591,262L628,248.296" style="fill:none;stroke:rgb(162,162,162);stroke-width:4.17px;"/>
        </g>
        <g transform="matrix(1,0,0,1,495.109,-102.767)">
            <path d="M569,299L580,273" style="fill:none;stroke:rgb(162,162,162);stroke-width:4.17px;"/>
        </g>
        <g transform="matrix(1,0,0,1,495.109,-102.767)">
            <path d="M569,314.796L580,340" style="fill:none;stroke:rgb(162,162,162);stroke-width:4.17px;"/>
        </g>
        <g transform="matrix(1,0,0,1,495.109,-102.767)">
            <path d="M591,267L675,267.678" style="fill:none;stroke:rgb(162,162,162);stroke-width:4.17px;"/>
        </g>
        <g transform="matrix(1,0,0,1,495.109,-102.767)">
            <path d="M641,364.704L675,350" style="fill:none;stroke:rgb(162,162,162);stroke-width:4.17px;"/>
        </g>
        <g transform="matrix(1,0,0,1,495.109,-102.767)">
            <path d="M686,339L697,313" style="fill:none;stroke:rgb(162,162,162);stroke-width:4.17px;"/>
        </g>
        <g transform="matrix(1,0,0,1,495.109,-102.767)">
            <path d="M641,250L675,264" style="fill:none;stroke:rgb(162,162,162);stroke-width:4.17px;"/>
        </g>
        <g transform="matrix(1,0,0,1,497.109,-104.311)">
            <path d="M638,253L697,306.5" style="fill:none;stroke:rgb(162,162,162);stroke-width:4.17px;"/>
        </g>
        <g transform="matrix(1,0,0,1,495.109,-102.767)">
            <path d="M681.03,273L681.03,340" style="fill:none;stroke:rgb(162,162,162);stroke-width:4.17px;"/>
        </g>
        <g transform="matrix(1,0,0,1,495.109,-102.767)">
            <path d="M636,360L693,306.5" style="fill:none;stroke:rgb(162,162,162);stroke-width:4.17px;"/>
        </g>
        <g transform="matrix(1,0,0,1,495.109,-102.767)">
            <path d="M572,309L630,362" style="fill:none;stroke:rgb(162,162,162);stroke-width:4.17px;"/>
        </g>
        <g transform="matrix(1,0,0,1,93.1092,-8.76715)">
            <path d="M1035,162.579L1035.5,263.352" style="fill:none;stroke:rgb(162,162,162);stroke-width:4.17px;"/>
        </g>
        <g transform="matrix(1,0,0,1,93.1092,-8.76715)">
            <path d="M976.5,210.956L1096,210.956" style="fill:none;stroke:rgb(162,162,162);stroke-width:4.17px;"/>
        </g>
        <g transform="matrix(1,0,0,1,93.1092,-8.76715)">
            <path d="M993,179L1079,246" style="fill:none;stroke:rgb(162,162,162);stroke-width:4.17px;"/>
        </g>
        <g transform="matrix(1,0,0,1,91.9694,-8.26715)">
            <path d="M976,212.5L1079,248" style="fill:none;stroke:rgb(162,162,162);stroke-width:4.17px;"/>
        </g>
        <g transform="matrix(1,0,0,1,93.1092,-8.76715)">
            <path d="M993,175L1096,208" style="fill:none;stroke:rgb(162,162,162);stroke-width:4.17px;"/>
        </g>
        <g transform="matrix(0.70236,0,0,0.63748,806.725,115.033)">
            <circle cx="363.807" cy="139.141" r="13.013" style="fill:rgb(92,92,92);stroke:rgb(92,92,92);stroke-width:4.87px;"/>
        </g>
        <g transform="matrix(1,0,0,1,20.0177,7.19512)">
            <path d="M1418.14,300.704L1418.14,275" style="fill:none;stroke:rgb(162,162,162);stroke-width:4.17px;"/>
        </g>
        <g transform="matrix(1,0,0,1,20.0177,7.19512)">
            <path d="M1335,354.296L1367,354.296" style="fill:none;stroke:rgb(162,162,162);stroke-width:4.17px;"/>
        </g>
        <g transform="matrix(1,0,0,1,20.0177,7.19512)">
            <path d="M1418.14,402L1418.14,434.296" style="fill:none;stroke:rgb(162,162,162);stroke-width:4.17px;"/>
        </g>
        <g transform="matrix(1,0,0,1,20.0177,7.19512)">
            <path d="M1469,354.296L1500,354.296" style="fill:none;stroke:rgb(162,162,162);stroke-width:4.17px;"/>
        </g>
        <g transform="matrix(1,0,0,1,20.0177,7.19512)">
            <path d="M1374,348L1413,314" style="fill:none;stroke:rgb(162,162,162);stroke-width:4.17px;"/>
        </g>
        <g transform="matrix(1,0,0,1,67.0177,53.1951)">
            <path d="M1374,348L1413,314" style="fill:none;stroke:rgb(162,162,162);stroke-width:4.17px;"/>
        </g>
        <g transform="matrix(1,0,0,1,20.0177,7.19512)">
            <path d="M1424,314L1458,348" style="fill:none;stroke:rgb(162,162,162);stroke-width:4.17px;"/>
        </g>
        <g transform="matrix(1,0,0,1,-27.4823,53.1951)">
            <path d="M1424,314L1458,348" style="fill:none;stroke:rgb(162,162,162);stroke-width:4.17px;"/>
        </g>
        <g transform="matrix(0.70236,0,0,0.63748,1182.63,227.496)">
            <circle cx="363.807" cy="139.141" r="13.013" style="fill:rgb(92,92,92);stroke:rgb(92,92,92);stroke-width:4.87px;"/>
        </g>
        <g transform="matrix(0.70236,0,0,0.63748,1135.63,272.791)">
            <circle cx="363.807" cy="139.141" r="13.013" style="fill:rgb(92,92,92);stroke:rgb(92,92,92);stroke-width:4.87px;"/>
        </g>
        <g transform="matrix(0.70236,0,0,0.63748,1182.63,317.791)">
            <circle cx="363.807" cy="139.141" r="13.013" style="fill:rgb(92,92,92);stroke:rgb(92,92,92);stroke-width:4.87px;"/>
        </g>
        <g transform="matrix(0.70236,0,0,0.63748,1182.63,188.791)">
            <circle cx="363.807" cy="139.141" r="13.013" style="fill:rgb(92,92,92);stroke:rgb(92,92,92);stroke-width:4.87px;"/>
        </g>
        <g transform="matrix(0.70236,0,0,0.63748,1266.63,272.791)">
            <circle cx="363.807" cy="139.141" r="13.013" style="fill:rgb(92,92,92);stroke:rgb(92,92,92);stroke-width:4.87px;"/>
        </g>
        <g transform="matrix(0.70236,0,0,0.63748,1094.63,272.791)">
            <circle cx="363.807" cy="139.141" r="13.013" style="fill:rgb(92,92,92);stroke:rgb(92,92,92);stroke-width:4.87px;"/>
        </g>
        <g transform="matrix(0.70236,0,0,0.63748,1182.63,352.791)">
            <circle cx="363.807" cy="139.141" r="13.013" style="fill:rgb(92,92,92);stroke:rgb(92,92,92);stroke-width:4.87px;"/>
        </g>
        <g transform="matrix(0.70236,0,0,0.63748,1227.63,272.791)">
            <circle cx="363.807" cy="139.141" r="13.013" style="fill:rgb(92,92,92);stroke:rgb(92,92,92);stroke-width:4.87px;"/>
        </g>
        <g transform="matrix(1,0,0,1,93.1092,-8.76715)">
            <path d="M993,248L1096,212.5" style="fill:none;stroke:rgb(162,162,162);stroke-width:4.17px;"/>
        </g>
        <g transform="matrix(1,0,0,1,93.1092,-8.76715)">
            <path d="M993,246L1079,179" style="fill:none;stroke:rgb(162,162,162);stroke-width:4.17px;"/>
        </g>
        <g transform="matrix(1,0,0,1,93.1092,-8.76715)">
            <path d="M988,179L1035,267" style="fill:none;stroke:rgb(236,112,121);stroke-width:4.17px;"/>
        </g>
        <g transform="matrix(1,0,0,1,495.109,-102.767)">
            <path d="M591,350L628,364.704" style="fill:none;stroke:rgb(236,112,121);stroke-width:4.17px;"/>
        </g>
        <g transform="matrix(1,0,0,1,495.529,-102.767)">
            <path d="M585,273L585.419,336.912" style="fill:none;stroke:rgb(236,112,121);stroke-width:4.17px;"/>
        </g>
        <g transform="matrix(1,0,0,1,93.1092,-8.76715)">
            <path d="M1038,159L1082,246" style="fill:none;stroke:rgb(162,162,162);stroke-width:4.17px;"/>
        </g>
        <g transform="matrix(0.70236,0,0,0.63748,873.085,173.238)">
            <circle cx="363.807" cy="139.141" r="13.013" style="fill:rgb(92,92,92);stroke:rgb(92,92,92);stroke-width:4.87px;"/>
        </g>
        <g transform="matrix(0.70236,0,0,0.63748,825.005,153.741)">
            <circle cx="363.807" cy="139.141" r="13.013" style="fill:rgb(92,92,92);stroke:rgb(92,92,92);stroke-width:4.87px;"/>
        </g>
        <g transform="matrix(0.70236,0,0,0.63748,825.005,76.2115)">
            <circle cx="363.807" cy="139.141" r="13.013" style="fill:rgb(92,92,92);stroke:rgb(92,92,92);stroke-width:4.87px;"/>
        </g>
        <g transform="matrix(0.70236,0,0,0.63748,873.085,56.829)">
            <circle cx="363.807" cy="139.141" r="13.013" style="fill:rgb(92,92,92);stroke:rgb(92,92,92);stroke-width:4.87px;"/>
        </g>
        <g transform="matrix(1,0,0,1,495.109,-102.767)">
            <path d="M697,298.204L684,273" style="fill:none;stroke:rgb(162,162,162);stroke-width:4.17px;"/>
        </g>
        <g transform="matrix(0.70236,0,0,0.63748,920.615,76.2115)">
            <circle cx="363.807" cy="139.141" r="13.013" style="fill:rgb(92,92,92);stroke:rgb(92,92,92);stroke-width:4.87px;"/>
        </g>
        <g transform="matrix(0.70236,0,0,0.63748,939.446,115.033)">
            <circle cx="363.807" cy="139.141" r="13.013" style="fill:rgb(92,92,92);stroke:rgb(92,92,92);stroke-width:4.87px;"/>
        </g>
        <g transform="matrix(0.70236,0,0,0.63748,920.615,153.741)">
            <circle cx="363.807" cy="139.141" r="13.013" style="fill:rgb(92,92,92);stroke:rgb(92,92,92);stroke-width:4.87px;"/>
        </g>
        <g transform="matrix(1,0,0,1,451.225,174.156)">
            <g transform="matrix(37.5,0,0,37.5,805.835,213)">
            </g>
            <text x="537px" y="213px" style="font-family:'ArialMT', 'Arial', sans-serif;font-size:37.5px;fill:rgb(236,112,121);">(many triangles)</text>
        </g>
        <g transform="matrix(1,0,0,1,789.276,22.857)">
            <g transform="matrix(37.5,0,0,37.5,755.848,213)">
            </g>
            <text x="537px" y="213px" style="font-family:'ArialMT', 'Arial', sans-serif;font-size:37.5px;fill:rgb(236,112,121);">(no triangles)</text>
        </g>
    </g>
</svg>
