<?xml version="1.0" encoding="UTF-8" standalone="no"?>
<!DOCTYPE svg PUBLIC "-//W3C//DTD SVG 1.1//EN" "http://www.w3.org/Graphics/SVG/1.1/DTD/svg11.dtd">
<svg width="100%" height="100%" viewBox="0 0 578 308" version="1.1" xmlns="http://www.w3.org/2000/svg" xmlns:xlink="http://www.w3.org/1999/xlink" xml:space="preserve" xmlns:serif="http://www.serif.com/" style="fill-rule:evenodd;clip-rule:evenodd;stroke-linecap:round;stroke-linejoin:round;stroke-miterlimit:1.5;">
    <g transform="matrix(1,0,0,1,-235.212,-118.299)">
        <g transform="matrix(0.574464,0.00460317,0.00466918,0.566645,97.2473,63.9259)">
            <path d="M414,114L352,174" style="fill:none;stroke:rgb(162,162,162);stroke-width:5.68px;"/>
        </g>
        <g transform="matrix(0.579289,0,0,0.5711,96.3614,64.7711)">
            <path d="M424,344L520,120" style="fill:none;stroke:rgb(162,162,162);stroke-width:5.68px;"/>
        </g>
        <g transform="matrix(0.579289,0,0,0.5711,96.9407,65.3422)">
            <path d="M427,346L586,190" style="fill:none;stroke:rgb(162,162,162);stroke-width:5.68px;"/>
        </g>
        <g transform="matrix(0.579289,6.34048e-17,6.4314e-17,0.5711,96.3614,64.7711)">
            <path d="M431,116L586,282" style="fill:none;stroke:rgb(236,112,121);stroke-width:5.68px;"/>
        </g>
        <g transform="matrix(0.579289,0,0,0.5711,96.3614,64.7711)">
            <path d="M362,283L585,187" style="fill:none;stroke:rgb(162,162,162);stroke-width:5.68px;"/>
        </g>
        <g transform="matrix(0.581922,2.35972e-05,2.39356e-05,0.5711,94.8195,65.8995)">
            <path d="M363,286L583,288" style="fill:none;stroke:rgb(162,162,162);stroke-width:5.67px;"/>
        </g>
        <g transform="matrix(0.579289,0,0,0.5711,96.3614,64.7711)">
            <path d="M433,355L512,355" style="fill:none;stroke:rgb(162,162,162);stroke-width:5.68px;"/>
        </g>
        <g transform="matrix(0.579289,0,0,0.5711,96.3614,64.7711)">
            <path d="M534,349L588,298" style="fill:none;stroke:rgb(162,162,162);stroke-width:5.68px;"/>
        </g>
        <g transform="matrix(0.579289,0,0,0.5711,96.3614,64.7711)">
            <path d="M431,349L585,294" style="fill:none;stroke:rgb(162,162,162);stroke-width:5.68px;"/>
        </g>
        <g transform="matrix(0.579289,0,0,0.5711,96.3614,64.7711)">
            <path d="M594,193L595,278" style="fill:none;stroke:rgb(162,162,162);stroke-width:5.68px;"/>
        </g>
        <g transform="matrix(0.557554,-0.0192485,-0.0195245,0.553809,110.996,77.7312)">
            <path d="M355,295L414,348" style="fill:none;stroke:rgb(162,162,162);stroke-width:6.09px;"/>
        </g>
        <g transform="matrix(0.579288,9.02193e-05,9.15131e-05,0.566025,96.3307,66.4739)">
            <path d="M424,118L420,343" style="fill:none;stroke:rgb(162,162,162);stroke-width:5.7px;"/>
        </g>
        <g transform="matrix(0.579289,0,0,0.5711,96.3614,64.7711)">
            <path d="M524,121L524,344" style="fill:none;stroke:rgb(162,162,162);stroke-width:5.68px;"/>
        </g>
        <g transform="matrix(0.578291,0.00246164,0.00249694,0.564946,96.0268,65.5958)">
            <path d="M419,116L355,276" style="fill:none;stroke:rgb(162,162,162);stroke-width:5.69px;"/>
        </g>
        <g transform="matrix(0.579289,0,0,0.5711,96.3614,64.7711)">
            <path d="M435,107L513,107" style="fill:none;stroke:rgb(162,162,162);stroke-width:5.68px;"/>
        </g>
        <g transform="matrix(0.576067,-0.00135832,-0.0013778,0.570519,98.4901,65.6685)">
            <path d="M433,112L585,177" style="fill:none;stroke:rgb(162,162,162);stroke-width:5.71px;"/>
        </g>
        <g transform="matrix(0.574186,2.21657e-05,2.24836e-05,0.5711,98.1844,65.3343)">
            <path d="M358,182L585,181" style="fill:none;stroke:rgb(162,162,162);stroke-width:5.71px;"/>
        </g>
        <g transform="matrix(0.5787,-0.00135832,-0.0013778,0.567923,97.4134,65.8609)">
            <path d="M351,193L416,345" style="fill:none;stroke:rgb(162,162,162);stroke-width:5.71px;"/>
        </g>
        <g transform="matrix(0.579289,0,0,0.5711,96.3614,64.7711)">
            <path d="M428,119L520,345" style="fill:none;stroke:rgb(162,162,162);stroke-width:5.68px;"/>
        </g>
        <g transform="matrix(0.579289,0,0,0.5711,96.3614,64.7711)">
            <path d="M355,191L517,347" style="fill:none;stroke:rgb(162,162,162);stroke-width:5.68px;"/>
        </g>
        <g transform="matrix(0.572792,-0.00242261,-0.00245735,0.570183,100.57,66.3404)">
            <path d="M359,292L515,351" style="fill:none;stroke:rgb(162,162,162);stroke-width:5.74px;"/>
        </g>
        <g transform="matrix(0.579289,0,0,0.5711,96.3614,65.3422)">
            <path d="M590,173L532,117" style="fill:none;stroke:rgb(162,162,162);stroke-width:5.68px;"/>
        </g>
        <g transform="matrix(0.579289,0,0,0.5711,95.7821,65.3422)">
            <path d="M529,119L591,278" style="fill:none;stroke:rgb(162,162,162);stroke-width:5.68px;"/>
        </g>
        <g transform="matrix(0.579289,0,0,0.5711,96.3614,64.7711)">
            <path d="M356,178L513,114" style="fill:none;stroke:rgb(162,162,162);stroke-width:5.68px;"/>
        </g>
        <g transform="matrix(0.579289,0,0,0.5711,96.3614,64.7711)">
            <path d="M359,279L516,118" style="fill:none;stroke:rgb(162,162,162);stroke-width:5.68px;"/>
        </g>
        <g transform="matrix(0.525783,0,0,0.518349,148.707,195.736)">
            <circle cx="363.807" cy="139.141" r="13.013" style="fill:rgb(92,92,92);stroke:rgb(92,92,92);stroke-width:6.26px;"/>
        </g>
        <g transform="matrix(0.525783,0,0,0.518349,249.489,97.2031)">
            <circle cx="363.807" cy="139.141" r="13.013" style="fill:rgb(92,92,92);stroke:rgb(92,92,92);stroke-width:6.26px;"/>
        </g>
        <g transform="matrix(0.525783,0,0,0.518349,208.413,55.618)">
            <circle cx="363.807" cy="139.141" r="13.013" style="fill:rgb(92,92,92);stroke:rgb(92,92,92);stroke-width:6.26px;"/>
        </g>
        <g transform="matrix(0.579289,0,0,0.5711,96.3614,64.7711)">
            <path d="M349,275L349,194" style="fill:none;stroke:rgb(162,162,162);stroke-width:5.68px;"/>
        </g>
        <g transform="matrix(0.525783,0,0,0.518349,150.261,54.554)">
            <circle cx="363.807" cy="139.141" r="13.013" style="fill:rgb(92,92,92);stroke:rgb(92,92,92);stroke-width:6.26px;"/>
        </g>
        <g transform="matrix(0.579289,0,0,0.5711,96.3614,65.9133)">
            <path d="M357,186L584,284" style="fill:none;stroke:rgb(162,162,162);stroke-width:5.68px;"/>
        </g>
        <g transform="matrix(0.525783,0,0,0.518349,108.075,156.546)">
            <circle cx="363.807" cy="139.141" r="13.013" style="fill:rgb(92,92,92);stroke:rgb(92,92,92);stroke-width:6.26px;"/>
        </g>
        <g transform="matrix(0.525783,0,0,0.518349,106.415,97.5643)">
            <circle cx="363.807" cy="139.141" r="13.013" style="fill:rgb(92,92,92);stroke:rgb(92,92,92);stroke-width:6.26px;"/>
        </g>
        <g transform="matrix(0.525783,0,0,0.518349,208.468,196.065)">
            <circle cx="363.807" cy="139.141" r="13.013" style="fill:rgb(92,92,92);stroke:rgb(92,92,92);stroke-width:6.26px;"/>
        </g>
        <g transform="matrix(0.525783,0,0,0.518349,249.621,157.937)">
            <circle cx="363.807" cy="139.141" r="13.013" style="fill:rgb(92,92,92);stroke:rgb(92,92,92);stroke-width:6.26px;"/>
        </g>
        <g transform="matrix(0.578755,0.00129924,0.00131787,0.567894,96.1892,65.1899)">
            <path d="M529,345L591,192" style="fill:none;stroke:rgb(162,162,162);stroke-width:5.69px;"/>
        </g>
        <g transform="matrix(0.574464,0.00460317,0.00466918,0.566645,388.456,202.583)">
            <path d="M414,114L352,174" style="fill:none;stroke:rgb(236,112,121);stroke-width:5.68px;"/>
        </g>
        <g transform="matrix(0.579289,0,0,0.5711,387.57,203.428)">
            <path d="M433,355L512,355" style="fill:none;stroke:rgb(236,112,121);stroke-width:5.68px;"/>
        </g>
        <g transform="matrix(0.579289,0,0,0.5711,387.57,203.428)">
            <path d="M534,349L588,298" style="fill:none;stroke:rgb(236,112,121);stroke-width:5.68px;"/>
        </g>
        <g transform="matrix(0.579289,0,0,0.5711,387.57,203.428)">
            <path d="M594,193L595,278" style="fill:none;stroke:rgb(162,162,162);stroke-width:5.68px;"/>
        </g>
        <g transform="matrix(0.557554,-0.0192485,-0.0195245,0.553809,402.204,216.389)">
            <path d="M355,295L414,348" style="fill:none;stroke:rgb(236,112,121);stroke-width:6.09px;"/>
        </g>
        <g transform="matrix(0.579289,0,0,0.5711,387.57,203.428)">
            <path d="M435,107L513,107" style="fill:none;stroke:rgb(162,162,162);stroke-width:5.68px;"/>
        </g>
        <g transform="matrix(0.525783,0,0,0.518349,439.915,334.393)">
            <circle cx="363.807" cy="139.141" r="13.013" style="fill:rgb(92,92,92);stroke:rgb(92,92,92);stroke-width:6.26px;"/>
        </g>
        <g transform="matrix(0.525783,0,0,0.518349,540.697,235.86)">
            <circle cx="363.807" cy="139.141" r="13.013" style="fill:rgb(92,92,92);stroke:rgb(92,92,92);stroke-width:6.26px;"/>
        </g>
        <g transform="matrix(0.525783,0,0,0.518349,499.622,194.275)">
            <circle cx="363.807" cy="139.141" r="13.013" style="fill:rgb(92,92,92);stroke:rgb(92,92,92);stroke-width:6.26px;"/>
        </g>
        <g transform="matrix(0.579289,0,0,0.5711,387.57,203.428)">
            <path d="M349,275L349,194" style="fill:none;stroke:rgb(236,112,121);stroke-width:5.68px;"/>
        </g>
        <g transform="matrix(0.525783,0,0,0.518349,441.469,193.211)">
            <circle cx="363.807" cy="139.141" r="13.013" style="fill:rgb(92,92,92);stroke:rgb(92,92,92);stroke-width:6.26px;"/>
        </g>
        <g transform="matrix(0.525783,0,0,0.518349,399.283,295.204)">
            <circle cx="363.807" cy="139.141" r="13.013" style="fill:rgb(92,92,92);stroke:rgb(92,92,92);stroke-width:6.26px;"/>
        </g>
        <g transform="matrix(0.525783,0,0,0.518349,397.624,236.222)">
            <circle cx="363.807" cy="139.141" r="13.013" style="fill:rgb(92,92,92);stroke:rgb(92,92,92);stroke-width:6.26px;"/>
        </g>
        <g transform="matrix(0.525783,0,0,0.518349,499.677,334.723)">
            <circle cx="363.807" cy="139.141" r="13.013" style="fill:rgb(92,92,92);stroke:rgb(92,92,92);stroke-width:6.26px;"/>
        </g>
        <g transform="matrix(0.525783,0,0,0.518349,540.83,296.594)">
            <circle cx="363.807" cy="139.141" r="13.013" style="fill:rgb(92,92,92);stroke:rgb(92,92,92);stroke-width:6.26px;"/>
        </g>
        <g transform="matrix(1,0,0,1,-229.782,121.776)">
            <g transform="matrix(37.5,0,0,37.5,568.274,213)">
            </g>
            <g transform="matrix(37.5,0,0,37.5,578.693,213)">
            </g>
            <g transform="matrix(37.5,0,0,37.5,666.236,213)">
            </g>
            <text x="537px" y="213px" style="font-family:'ArialMT', 'Arial', sans-serif;font-size:37.5px;fill:rgb(236,112,121);">efﬁcient</text>
        </g>
        <g transform="matrix(1,0,0,1,-304.058,165.934)">
            <text x="537px" y="213px" style="font-family:'ArialMT', 'Arial', sans-serif;font-size:37.5px;fill:rgb(236,112,121);">(direct exchange</text>
            <g transform="matrix(37.5,0,0,37.5,795.463,251.727)">
            </g>
            <text x="555.777px" y="251.727px" style="font-family:'ArialMT', 'Arial', sans-serif;font-size:37.5px;fill:rgb(236,112,121);">of information)</text>
        </g>
        <g transform="matrix(1,0,0,1,-28.9776,-17.6935)">
            <text x="537px" y="213px" style="font-family:'ArialMT', 'Arial', sans-serif;font-size:37.5px;fill:rgb(236,112,121);">(indirect exchange</text>
            <g transform="matrix(37.5,0,0,37.5,810.056,251.727)">
            </g>
            <text x="570.371px" y="251.727px" style="font-family:'ArialMT', 'Arial', sans-serif;font-size:37.5px;fill:rgb(236,112,121);">of information)</text>
        </g>
        <g transform="matrix(1,0,0,1,44.7407,-60.4471)">
            <g transform="matrix(37.5,0,0,37.5,597.461,213)">
            </g>
            <g transform="matrix(37.5,0,0,37.5,607.88,213)">
            </g>
            <g transform="matrix(37.5,0,0,37.5,695.423,213)">
            </g>
            <text x="537px" y="213px" style="font-family:'ArialMT', 'Arial', sans-serif;font-size:37.5px;fill:rgb(236,112,121);">inefﬁcient</text>
        </g>
    </g>
</svg>
