<?xml version="1.0" encoding="utf-8" standalone="no"?>
<!DOCTYPE svg PUBLIC "-//W3C//DTD SVG 1.1//EN"
  "http://www.w3.org/Graphics/SVG/1.1/DTD/svg11.dtd">
<svg xmlns:xlink="http://www.w3.org/1999/xlink" width="460.8pt" height="345.6pt" viewBox="0 0 460.8 345.6" xmlns="http://www.w3.org/2000/svg" version="1.1">
 <metadata>
  <rdf:RDF xmlns:dc="http://purl.org/dc/elements/1.1/" xmlns:cc="http://creativecommons.org/ns#" xmlns:rdf="http://www.w3.org/1999/02/22-rdf-syntax-ns#">
   <cc:Work>
    <dc:type rdf:resource="http://purl.org/dc/dcmitype/StillImage"/>
    <dc:date>2024-01-22T19:14:53.434073</dc:date>
    <dc:format>image/svg+xml</dc:format>
    <dc:creator>
     <cc:Agent>
      <dc:title>Matplotlib v3.7.2, https://matplotlib.org/</dc:title>
     </cc:Agent>
    </dc:creator>
   </cc:Work>
  </rdf:RDF>
 </metadata>
 <defs>
  <style type="text/css">*{stroke-linejoin: round; stroke-linecap: butt}</style>
 </defs>
 <g id="figure_1">
  <g id="patch_1">
   <path d="M 0 345.6 
L 460.8 345.6 
L 460.8 0 
L 0 0 
L 0 345.6 
z
" style="fill: none"/>
  </g>
  <g id="axes_1">
   <g id="LineCollection_1">
    <path d="M 383.730248 174.528 
L 375.679583 138.700497 
" clip-path="url(#pe6671162fe)" style="fill: none; stroke: #000000"/>
    <path d="M 383.730248 174.528 
L 352.400011 106.75546 
" clip-path="url(#pe6671162fe)" style="fill: none; stroke: #000000"/>
    <path d="M 383.730248 174.528 
L 316.414221 82.154625 
" clip-path="url(#pe6671162fe)" style="fill: none; stroke: #000000"/>
    <path d="M 383.730248 174.528 
L 271.621851 67.563881 
" clip-path="url(#pe6671162fe)" style="fill: none; stroke: #000000"/>
    <path d="M 383.730248 174.528 
L 134.513902 93.34785 
" clip-path="url(#pe6671162fe)" style="fill: none; stroke: #000000"/>
    <path d="M 383.730248 174.528 
L 175.461455 73.481106 
" clip-path="url(#pe6671162fe)" style="fill: none; stroke: #000000"/>
    <path d="M 383.730248 174.528 
L 375.679583 210.35551 
" clip-path="url(#pe6671162fe)" style="fill: none; stroke: #000000"/>
    <path d="M 383.730248 174.528 
L 352.400029 242.300527 
" clip-path="url(#pe6671162fe)" style="fill: none; stroke: #000000"/>
    <path d="M 375.679583 138.700497 
L 316.414221 82.154625 
" clip-path="url(#pe6671162fe)" style="fill: none; stroke: #000000"/>
    <path d="M 375.679583 138.700497 
L 352.400011 106.75546 
" clip-path="url(#pe6671162fe)" style="fill: none; stroke: #000000"/>
    <path d="M 375.679583 138.700497 
L 134.513902 93.34785 
" clip-path="url(#pe6671162fe)" style="fill: none; stroke: #000000"/>
    <path d="M 375.679583 138.700497 
L 352.400029 242.300527 
" clip-path="url(#pe6671162fe)" style="fill: none; stroke: #000000"/>
    <path d="M 375.679583 138.700497 
L 134.513893 255.708143 
" clip-path="url(#pe6671162fe)" style="fill: none; stroke: #000000"/>
    <path d="M 352.400011 106.75546 
L 88.589752 156.366546 
" clip-path="url(#pe6671162fe)" style="fill: none; stroke: #000000"/>
    <path d="M 352.400011 106.75546 
L 316.414221 82.154625 
" clip-path="url(#pe6671162fe)" style="fill: none; stroke: #000000"/>
    <path d="M 352.400011 106.75546 
L 175.461455 73.481106 
" clip-path="url(#pe6671162fe)" style="fill: none; stroke: #000000"/>
    <path d="M 352.400011 106.75546 
L 316.414212 266.901375 
" clip-path="url(#pe6671162fe)" style="fill: none; stroke: #000000"/>
    <path d="M 352.400011 106.75546 
L 222.876825 284.491636 
" clip-path="url(#pe6671162fe)" style="fill: none; stroke: #000000"/>
    <path d="M 352.400011 106.75546 
L 88.589752 192.689447 
" clip-path="url(#pe6671162fe)" style="fill: none; stroke: #000000"/>
    <path d="M 352.400011 106.75546 
L 175.461477 275.5749 
" clip-path="url(#pe6671162fe)" style="fill: none; stroke: #000000"/>
    <path d="M 352.400011 106.75546 
L 104.471481 122.011721 
" clip-path="url(#pe6671162fe)" style="fill: none; stroke: #000000"/>
    <path d="M 352.400011 106.75546 
L 352.400029 242.300527 
" clip-path="url(#pe6671162fe)" style="fill: none; stroke: #000000"/>
    <path d="M 352.400011 106.75546 
L 134.513893 255.708143 
" clip-path="url(#pe6671162fe)" style="fill: none; stroke: #000000"/>
    <path d="M 316.414221 82.154625 
L 134.513893 255.708143 
" clip-path="url(#pe6671162fe)" style="fill: none; stroke: #000000"/>
    <path d="M 316.414221 82.154625 
L 134.513902 93.34785 
" clip-path="url(#pe6671162fe)" style="fill: none; stroke: #000000"/>
    <path d="M 316.414221 82.154625 
L 175.461477 275.5749 
" clip-path="url(#pe6671162fe)" style="fill: none; stroke: #000000"/>
    <path d="M 316.414221 82.154625 
L 175.461455 73.481106 
" clip-path="url(#pe6671162fe)" style="fill: none; stroke: #000000"/>
    <path d="M 316.414221 82.154625 
L 271.621851 67.563881 
" clip-path="url(#pe6671162fe)" style="fill: none; stroke: #000000"/>
    <path d="M 316.414221 82.154625 
L 375.679583 210.35551 
" clip-path="url(#pe6671162fe)" style="fill: none; stroke: #000000"/>
    <path d="M 271.621851 67.563881 
L 104.471481 122.011721 
" clip-path="url(#pe6671162fe)" style="fill: none; stroke: #000000"/>
    <path d="M 271.621851 67.563881 
L 175.461455 73.481106 
" clip-path="url(#pe6671162fe)" style="fill: none; stroke: #000000"/>
    <path d="M 271.621851 67.563881 
L 134.513902 93.34785 
" clip-path="url(#pe6671162fe)" style="fill: none; stroke: #000000"/>
    <path d="M 271.621851 67.563881 
L 134.513893 255.708143 
" clip-path="url(#pe6671162fe)" style="fill: none; stroke: #000000"/>
    <path d="M 271.621851 67.563881 
L 352.400029 242.300527 
" clip-path="url(#pe6671162fe)" style="fill: none; stroke: #000000"/>
    <path d="M 271.621851 67.563881 
L 88.589752 192.689447 
" clip-path="url(#pe6671162fe)" style="fill: none; stroke: #000000"/>
    <path d="M 271.621851 67.563881 
L 104.471481 227.044272 
" clip-path="url(#pe6671162fe)" style="fill: none; stroke: #000000"/>
    <path d="M 222.876834 64.564364 
L 175.461455 73.481106 
" clip-path="url(#pe6671162fe)" style="fill: none; stroke: #000000"/>
    <path d="M 175.461455 73.481106 
L 104.471481 122.011721 
" clip-path="url(#pe6671162fe)" style="fill: none; stroke: #000000"/>
    <path d="M 175.461455 73.481106 
L 88.589752 156.366546 
" clip-path="url(#pe6671162fe)" style="fill: none; stroke: #000000"/>
    <path d="M 175.461455 73.481106 
L 222.876825 284.491636 
" clip-path="url(#pe6671162fe)" style="fill: none; stroke: #000000"/>
    <path d="M 175.461455 73.481106 
L 134.513893 255.708143 
" clip-path="url(#pe6671162fe)" style="fill: none; stroke: #000000"/>
    <path d="M 175.461455 73.481106 
L 88.589752 192.689447 
" clip-path="url(#pe6671162fe)" style="fill: none; stroke: #000000"/>
    <path d="M 175.461455 73.481106 
L 271.621878 281.492113 
" clip-path="url(#pe6671162fe)" style="fill: none; stroke: #000000"/>
    <path d="M 175.461455 73.481106 
L 104.471481 227.044272 
" clip-path="url(#pe6671162fe)" style="fill: none; stroke: #000000"/>
    <path d="M 175.461455 73.481106 
L 375.679583 210.35551 
" clip-path="url(#pe6671162fe)" style="fill: none; stroke: #000000"/>
    <path d="M 175.461455 73.481106 
L 175.461477 275.5749 
" clip-path="url(#pe6671162fe)" style="fill: none; stroke: #000000"/>
    <path d="M 134.513902 93.34785 
L 375.679583 210.35551 
" clip-path="url(#pe6671162fe)" style="fill: none; stroke: #000000"/>
    <path d="M 134.513902 93.34785 
L 175.461477 275.5749 
" clip-path="url(#pe6671162fe)" style="fill: none; stroke: #000000"/>
    <path d="M 104.471481 122.011721 
L 316.414212 266.901375 
" clip-path="url(#pe6671162fe)" style="fill: none; stroke: #000000"/>
    <path d="M 88.589752 156.366546 
L 88.589752 192.689447 
" clip-path="url(#pe6671162fe)" style="fill: none; stroke: #000000"/>
    <path d="M 88.589752 156.366546 
L 104.471481 227.044272 
" clip-path="url(#pe6671162fe)" style="fill: none; stroke: #000000"/>
    <path d="M 88.589752 192.689447 
L 316.414212 266.901375 
" clip-path="url(#pe6671162fe)" style="fill: none; stroke: #000000"/>
    <path d="M 88.589752 192.689447 
L 375.679583 210.35551 
" clip-path="url(#pe6671162fe)" style="fill: none; stroke: #000000"/>
    <path d="M 88.589752 192.689447 
L 352.400029 242.300527 
" clip-path="url(#pe6671162fe)" style="fill: none; stroke: #000000"/>
    <path d="M 88.589752 192.689447 
L 134.513893 255.708143 
" clip-path="url(#pe6671162fe)" style="fill: none; stroke: #000000"/>
    <path d="M 88.589752 192.689447 
L 175.461477 275.5749 
" clip-path="url(#pe6671162fe)" style="fill: none; stroke: #000000"/>
    <path d="M 134.513893 255.708143 
L 175.461477 275.5749 
" clip-path="url(#pe6671162fe)" style="fill: none; stroke: #000000"/>
    <path d="M 175.461477 275.5749 
L 375.679583 210.35551 
" clip-path="url(#pe6671162fe)" style="fill: none; stroke: #000000"/>
   </g>
   <g id="matplotlib.axis_1">
    <g id="xtick_1"/>
    <g id="xtick_2"/>
    <g id="xtick_3"/>
    <g id="xtick_4"/>
    <g id="xtick_5"/>
   </g>
   <g id="matplotlib.axis_2">
    <g id="ytick_1"/>
    <g id="ytick_2"/>
    <g id="ytick_3"/>
    <g id="ytick_4"/>
    <g id="ytick_5"/>
   </g>
   <g id="PathCollection_1">
    <defs>
     <path id="mbd1241f2ae" d="M 0 8.660254 
C 2.296726 8.660254 4.499694 7.747755 6.123724 6.123724 
C 7.747755 4.499694 8.660254 2.296726 8.660254 0 
C 8.660254 -2.296726 7.747755 -4.499694 6.123724 -6.123724 
C 4.499694 -7.747755 2.296726 -8.660254 0 -8.660254 
C -2.296726 -8.660254 -4.499694 -7.747755 -6.123724 -6.123724 
C -7.747755 -4.499694 -8.660254 -2.296726 -8.660254 0 
C -8.660254 2.296726 -7.747755 4.499694 -6.123724 6.123724 
C -4.499694 7.747755 -2.296726 8.660254 0 8.660254 
z
" style="stroke: #9dd9f3"/>
    </defs>
    <g clip-path="url(#pe6671162fe)">
     <use xlink:href="#mbd1241f2ae" x="383.730248" y="174.528" style="fill: #9dd9f3; stroke: #9dd9f3"/>
     <use xlink:href="#mbd1241f2ae" x="375.679583" y="138.700497" style="fill: #9dd9f3; stroke: #9dd9f3"/>
     <use xlink:href="#mbd1241f2ae" x="352.400011" y="106.75546" style="fill: #9dd9f3; stroke: #9dd9f3"/>
     <use xlink:href="#mbd1241f2ae" x="316.414221" y="82.154625" style="fill: #9dd9f3; stroke: #9dd9f3"/>
     <use xlink:href="#mbd1241f2ae" x="271.621851" y="67.563881" style="fill: #9dd9f3; stroke: #9dd9f3"/>
     <use xlink:href="#mbd1241f2ae" x="222.876834" y="64.564364" style="fill: #9dd9f3; stroke: #9dd9f3"/>
     <use xlink:href="#mbd1241f2ae" x="175.461455" y="73.481106" style="fill: #9dd9f3; stroke: #9dd9f3"/>
     <use xlink:href="#mbd1241f2ae" x="134.513902" y="93.34785" style="fill: #9dd9f3; stroke: #9dd9f3"/>
     <use xlink:href="#mbd1241f2ae" x="104.471481" y="122.011721" style="fill: #9dd9f3; stroke: #9dd9f3"/>
     <use xlink:href="#mbd1241f2ae" x="88.589752" y="156.366546" style="fill: #9dd9f3; stroke: #9dd9f3"/>
     <use xlink:href="#mbd1241f2ae" x="88.589752" y="192.689447" style="fill: #9dd9f3; stroke: #9dd9f3"/>
     <use xlink:href="#mbd1241f2ae" x="104.471481" y="227.044272" style="fill: #9dd9f3; stroke: #9dd9f3"/>
     <use xlink:href="#mbd1241f2ae" x="134.513893" y="255.708143" style="fill: #9dd9f3; stroke: #9dd9f3"/>
     <use xlink:href="#mbd1241f2ae" x="175.461477" y="275.5749" style="fill: #9dd9f3; stroke: #9dd9f3"/>
     <use xlink:href="#mbd1241f2ae" x="222.876825" y="284.491636" style="fill: #9dd9f3; stroke: #9dd9f3"/>
     <use xlink:href="#mbd1241f2ae" x="271.621878" y="281.492113" style="fill: #9dd9f3; stroke: #9dd9f3"/>
     <use xlink:href="#mbd1241f2ae" x="316.414212" y="266.901375" style="fill: #9dd9f3; stroke: #9dd9f3"/>
     <use xlink:href="#mbd1241f2ae" x="352.400029" y="242.300527" style="fill: #9dd9f3; stroke: #9dd9f3"/>
     <use xlink:href="#mbd1241f2ae" x="375.679583" y="210.35551" style="fill: #9dd9f3; stroke: #9dd9f3"/>
    </g>
   </g>
   <g id="text_1">
    <g clip-path="url(#pe6671162fe)">
     <!-- GATA4 -->
     <g transform="translate(364.320248 177.83925) scale(0.12 -0.12)">
      <defs>
       <path id="DejaVuSans-47" d="M 3809 666 
L 3809 1919 
L 2778 1919 
L 2778 2438 
L 4434 2438 
L 4434 434 
Q 4069 175 3628 42 
Q 3188 -91 2688 -91 
Q 1594 -91 976 548 
Q 359 1188 359 2328 
Q 359 3472 976 4111 
Q 1594 4750 2688 4750 
Q 3144 4750 3555 4637 
Q 3966 4525 4313 4306 
L 4313 3634 
Q 3963 3931 3569 4081 
Q 3175 4231 2741 4231 
Q 1884 4231 1454 3753 
Q 1025 3275 1025 2328 
Q 1025 1384 1454 906 
Q 1884 428 2741 428 
Q 3075 428 3337 486 
Q 3600 544 3809 666 
z
" transform="scale(0.015625)"/>
       <path id="DejaVuSans-41" d="M 2188 4044 
L 1331 1722 
L 3047 1722 
L 2188 4044 
z
M 1831 4666 
L 2547 4666 
L 4325 0 
L 3669 0 
L 3244 1197 
L 1141 1197 
L 716 0 
L 50 0 
L 1831 4666 
z
" transform="scale(0.015625)"/>
       <path id="DejaVuSans-54" d="M -19 4666 
L 3928 4666 
L 3928 4134 
L 2272 4134 
L 2272 0 
L 1638 0 
L 1638 4134 
L -19 4134 
L -19 4666 
z
" transform="scale(0.015625)"/>
       <path id="DejaVuSans-34" d="M 2419 4116 
L 825 1625 
L 2419 1625 
L 2419 4116 
z
M 2253 4666 
L 3047 4666 
L 3047 1625 
L 3713 1625 
L 3713 1100 
L 3047 1100 
L 3047 0 
L 2419 0 
L 2419 1100 
L 313 1100 
L 313 1709 
L 2253 4666 
z
" transform="scale(0.015625)"/>
      </defs>
      <use xlink:href="#DejaVuSans-47"/>
      <use xlink:href="#DejaVuSans-41" x="77.490234"/>
      <use xlink:href="#DejaVuSans-54" x="138.148438"/>
      <use xlink:href="#DejaVuSans-41" x="191.482422"/>
      <use xlink:href="#DejaVuSans-34" x="259.890625"/>
     </g>
    </g>
   </g>
   <g id="text_2">
    <g clip-path="url(#pe6671162fe)">
     <!-- UGR -->
     <g transform="translate(362.470208 142.011747) scale(0.12 -0.12)">
      <defs>
       <path id="DejaVuSans-55" d="M 556 4666 
L 1191 4666 
L 1191 1831 
Q 1191 1081 1462 751 
Q 1734 422 2344 422 
Q 2950 422 3222 751 
Q 3494 1081 3494 1831 
L 3494 4666 
L 4128 4666 
L 4128 1753 
Q 4128 841 3676 375 
Q 3225 -91 2344 -91 
Q 1459 -91 1007 375 
Q 556 841 556 1753 
L 556 4666 
z
" transform="scale(0.015625)"/>
       <path id="DejaVuSans-52" d="M 2841 2188 
Q 3044 2119 3236 1894 
Q 3428 1669 3622 1275 
L 4263 0 
L 3584 0 
L 2988 1197 
Q 2756 1666 2539 1819 
Q 2322 1972 1947 1972 
L 1259 1972 
L 1259 0 
L 628 0 
L 628 4666 
L 2053 4666 
Q 2853 4666 3247 4331 
Q 3641 3997 3641 3322 
Q 3641 2881 3436 2590 
Q 3231 2300 2841 2188 
z
M 1259 4147 
L 1259 2491 
L 2053 2491 
Q 2509 2491 2742 2702 
Q 2975 2913 2975 3322 
Q 2975 3731 2742 3939 
Q 2509 4147 2053 4147 
L 1259 4147 
z
" transform="scale(0.015625)"/>
      </defs>
      <use xlink:href="#DejaVuSans-55"/>
      <use xlink:href="#DejaVuSans-47" x="73.193359"/>
      <use xlink:href="#DejaVuSans-52" x="150.683594"/>
     </g>
    </g>
   </g>
   <g id="text_3">
    <g clip-path="url(#pe6671162fe)">
     <!-- WNT4 -->
     <g transform="translate(334.496574 110.06671) scale(0.12 -0.12)">
      <defs>
       <path id="DejaVuSans-57" d="M 213 4666 
L 850 4666 
L 1831 722 
L 2809 4666 
L 3519 4666 
L 4500 722 
L 5478 4666 
L 6119 4666 
L 4947 0 
L 4153 0 
L 3169 4050 
L 2175 0 
L 1381 0 
L 213 4666 
z
" transform="scale(0.015625)"/>
       <path id="DejaVuSans-4e" d="M 628 4666 
L 1478 4666 
L 3547 763 
L 3547 4666 
L 4159 4666 
L 4159 0 
L 3309 0 
L 1241 3903 
L 1241 0 
L 628 0 
L 628 4666 
z
" transform="scale(0.015625)"/>
      </defs>
      <use xlink:href="#DejaVuSans-57"/>
      <use xlink:href="#DejaVuSans-4e" x="98.876953"/>
      <use xlink:href="#DejaVuSans-54" x="173.681641"/>
      <use xlink:href="#DejaVuSans-34" x="234.765625"/>
     </g>
    </g>
   </g>
   <g id="text_4">
    <g clip-path="url(#pe6671162fe)">
     <!-- NR5A1 -->
     <g transform="translate(296.017034 85.465875) scale(0.12 -0.12)">
      <defs>
       <path id="DejaVuSans-35" d="M 691 4666 
L 3169 4666 
L 3169 4134 
L 1269 4134 
L 1269 2991 
Q 1406 3038 1543 3061 
Q 1681 3084 1819 3084 
Q 2600 3084 3056 2656 
Q 3513 2228 3513 1497 
Q 3513 744 3044 326 
Q 2575 -91 1722 -91 
Q 1428 -91 1123 -41 
Q 819 9 494 109 
L 494 744 
Q 775 591 1075 516 
Q 1375 441 1709 441 
Q 2250 441 2565 725 
Q 2881 1009 2881 1497 
Q 2881 1984 2565 2268 
Q 2250 2553 1709 2553 
Q 1456 2553 1204 2497 
Q 953 2441 691 2322 
L 691 4666 
z
" transform="scale(0.015625)"/>
       <path id="DejaVuSans-31" d="M 794 531 
L 1825 531 
L 1825 4091 
L 703 3866 
L 703 4441 
L 1819 4666 
L 2450 4666 
L 2450 531 
L 3481 531 
L 3481 0 
L 794 0 
L 794 531 
z
" transform="scale(0.015625)"/>
      </defs>
      <use xlink:href="#DejaVuSans-4e"/>
      <use xlink:href="#DejaVuSans-52" x="74.804688"/>
      <use xlink:href="#DejaVuSans-35" x="144.287109"/>
      <use xlink:href="#DejaVuSans-41" x="207.910156"/>
      <use xlink:href="#DejaVuSans-31" x="276.318359"/>
     </g>
    </g>
   </g>
   <g id="text_5">
    <g clip-path="url(#pe6671162fe)">
     <!-- SRY -->
     <g transform="translate(260.361539 70.875131) scale(0.12 -0.12)">
      <defs>
       <path id="DejaVuSans-53" d="M 3425 4513 
L 3425 3897 
Q 3066 4069 2747 4153 
Q 2428 4238 2131 4238 
Q 1616 4238 1336 4038 
Q 1056 3838 1056 3469 
Q 1056 3159 1242 3001 
Q 1428 2844 1947 2747 
L 2328 2669 
Q 3034 2534 3370 2195 
Q 3706 1856 3706 1288 
Q 3706 609 3251 259 
Q 2797 -91 1919 -91 
Q 1588 -91 1214 -16 
Q 841 59 441 206 
L 441 856 
Q 825 641 1194 531 
Q 1563 422 1919 422 
Q 2459 422 2753 634 
Q 3047 847 3047 1241 
Q 3047 1584 2836 1778 
Q 2625 1972 2144 2069 
L 1759 2144 
Q 1053 2284 737 2584 
Q 422 2884 422 3419 
Q 422 4038 858 4394 
Q 1294 4750 2059 4750 
Q 2388 4750 2728 4690 
Q 3069 4631 3425 4513 
z
" transform="scale(0.015625)"/>
       <path id="DejaVuSans-59" d="M -13 4666 
L 666 4666 
L 1959 2747 
L 3244 4666 
L 3922 4666 
L 2272 2222 
L 2272 0 
L 1638 0 
L 1638 2222 
L -13 4666 
z
" transform="scale(0.015625)"/>
      </defs>
      <use xlink:href="#DejaVuSans-53"/>
      <use xlink:href="#DejaVuSans-52" x="63.476562"/>
      <use xlink:href="#DejaVuSans-59" x="126.583984"/>
     </g>
    </g>
   </g>
   <g id="text_6">
    <g clip-path="url(#pe6671162fe)">
     <!-- PGD2 -->
     <g transform="translate(206.172459 67.875614) scale(0.12 -0.12)">
      <defs>
       <path id="DejaVuSans-50" d="M 1259 4147 
L 1259 2394 
L 2053 2394 
Q 2494 2394 2734 2622 
Q 2975 2850 2975 3272 
Q 2975 3691 2734 3919 
Q 2494 4147 2053 4147 
L 1259 4147 
z
M 628 4666 
L 2053 4666 
Q 2838 4666 3239 4311 
Q 3641 3956 3641 3272 
Q 3641 2581 3239 2228 
Q 2838 1875 2053 1875 
L 1259 1875 
L 1259 0 
L 628 0 
L 628 4666 
z
" transform="scale(0.015625)"/>
       <path id="DejaVuSans-44" d="M 1259 4147 
L 1259 519 
L 2022 519 
Q 2988 519 3436 956 
Q 3884 1394 3884 2338 
Q 3884 3275 3436 3711 
Q 2988 4147 2022 4147 
L 1259 4147 
z
M 628 4666 
L 1925 4666 
Q 3281 4666 3915 4102 
Q 4550 3538 4550 2338 
Q 4550 1131 3912 565 
Q 3275 0 1925 0 
L 628 0 
L 628 4666 
z
" transform="scale(0.015625)"/>
       <path id="DejaVuSans-32" d="M 1228 531 
L 3431 531 
L 3431 0 
L 469 0 
L 469 531 
Q 828 903 1448 1529 
Q 2069 2156 2228 2338 
Q 2531 2678 2651 2914 
Q 2772 3150 2772 3378 
Q 2772 3750 2511 3984 
Q 2250 4219 1831 4219 
Q 1534 4219 1204 4116 
Q 875 4013 500 3803 
L 500 4441 
Q 881 4594 1212 4672 
Q 1544 4750 1819 4750 
Q 2544 4750 2975 4387 
Q 3406 4025 3406 3419 
Q 3406 3131 3298 2873 
Q 3191 2616 2906 2266 
Q 2828 2175 2409 1742 
Q 1991 1309 1228 531 
z
" transform="scale(0.015625)"/>
      </defs>
      <use xlink:href="#DejaVuSans-50"/>
      <use xlink:href="#DejaVuSans-47" x="60.302734"/>
      <use xlink:href="#DejaVuSans-44" x="137.792969"/>
      <use xlink:href="#DejaVuSans-32" x="214.794922"/>
     </g>
    </g>
   </g>
   <g id="text_7">
    <g clip-path="url(#pe6671162fe)">
     <!-- SOX9 -->
     <g transform="translate(159.384267 76.792356) scale(0.12 -0.12)">
      <defs>
       <path id="DejaVuSans-4f" d="M 2522 4238 
Q 1834 4238 1429 3725 
Q 1025 3213 1025 2328 
Q 1025 1447 1429 934 
Q 1834 422 2522 422 
Q 3209 422 3611 934 
Q 4013 1447 4013 2328 
Q 4013 3213 3611 3725 
Q 3209 4238 2522 4238 
z
M 2522 4750 
Q 3503 4750 4090 4092 
Q 4678 3434 4678 2328 
Q 4678 1225 4090 567 
Q 3503 -91 2522 -91 
Q 1538 -91 948 565 
Q 359 1222 359 2328 
Q 359 3434 948 4092 
Q 1538 4750 2522 4750 
z
" transform="scale(0.015625)"/>
       <path id="DejaVuSans-58" d="M 403 4666 
L 1081 4666 
L 2241 2931 
L 3406 4666 
L 4084 4666 
L 2584 2425 
L 4184 0 
L 3506 0 
L 2194 1984 
L 872 0 
L 191 0 
L 1856 2491 
L 403 4666 
z
" transform="scale(0.015625)"/>
       <path id="DejaVuSans-39" d="M 703 97 
L 703 672 
Q 941 559 1184 500 
Q 1428 441 1663 441 
Q 2288 441 2617 861 
Q 2947 1281 2994 2138 
Q 2813 1869 2534 1725 
Q 2256 1581 1919 1581 
Q 1219 1581 811 2004 
Q 403 2428 403 3163 
Q 403 3881 828 4315 
Q 1253 4750 1959 4750 
Q 2769 4750 3195 4129 
Q 3622 3509 3622 2328 
Q 3622 1225 3098 567 
Q 2575 -91 1691 -91 
Q 1453 -91 1209 -44 
Q 966 3 703 97 
z
M 1959 2075 
Q 2384 2075 2632 2365 
Q 2881 2656 2881 3163 
Q 2881 3666 2632 3958 
Q 2384 4250 1959 4250 
Q 1534 4250 1286 3958 
Q 1038 3666 1038 3163 
Q 1038 2656 1286 2365 
Q 1534 2075 1959 2075 
z
" transform="scale(0.015625)"/>
      </defs>
      <use xlink:href="#DejaVuSans-53"/>
      <use xlink:href="#DejaVuSans-4f" x="63.476562"/>
      <use xlink:href="#DejaVuSans-58" x="135.8125"/>
      <use xlink:href="#DejaVuSans-39" x="204.318359"/>
     </g>
    </g>
   </g>
   <g id="text_8">
    <g clip-path="url(#pe6671162fe)">
     <!-- WT1mKTS -->
     <g transform="translate(104.311402 96.6591) scale(0.12 -0.12)">
      <defs>
       <path id="DejaVuSans-6d" d="M 3328 2828 
Q 3544 3216 3844 3400 
Q 4144 3584 4550 3584 
Q 5097 3584 5394 3201 
Q 5691 2819 5691 2113 
L 5691 0 
L 5113 0 
L 5113 2094 
Q 5113 2597 4934 2840 
Q 4756 3084 4391 3084 
Q 3944 3084 3684 2787 
Q 3425 2491 3425 1978 
L 3425 0 
L 2847 0 
L 2847 2094 
Q 2847 2600 2669 2842 
Q 2491 3084 2119 3084 
Q 1678 3084 1418 2786 
Q 1159 2488 1159 1978 
L 1159 0 
L 581 0 
L 581 3500 
L 1159 3500 
L 1159 2956 
Q 1356 3278 1631 3431 
Q 1906 3584 2284 3584 
Q 2666 3584 2933 3390 
Q 3200 3197 3328 2828 
z
" transform="scale(0.015625)"/>
       <path id="DejaVuSans-4b" d="M 628 4666 
L 1259 4666 
L 1259 2694 
L 3353 4666 
L 4166 4666 
L 1850 2491 
L 4331 0 
L 3500 0 
L 1259 2247 
L 1259 0 
L 628 0 
L 628 4666 
z
" transform="scale(0.015625)"/>
      </defs>
      <use xlink:href="#DejaVuSans-57"/>
      <use xlink:href="#DejaVuSans-54" x="98.876953"/>
      <use xlink:href="#DejaVuSans-31" x="159.960938"/>
      <use xlink:href="#DejaVuSans-6d" x="223.583984"/>
      <use xlink:href="#DejaVuSans-4b" x="320.996094"/>
      <use xlink:href="#DejaVuSans-54" x="378.822266"/>
      <use xlink:href="#DejaVuSans-53" x="439.90625"/>
     </g>
    </g>
   </g>
   <g id="text_9">
    <g clip-path="url(#pe6671162fe)">
     <!-- DKK1 -->
     <g transform="translate(88.164606 125.322971) scale(0.12 -0.12)">
      <use xlink:href="#DejaVuSans-44"/>
      <use xlink:href="#DejaVuSans-4b" x="77.001953"/>
      <use xlink:href="#DejaVuSans-4b" x="142.578125"/>
      <use xlink:href="#DejaVuSans-31" x="208.154297"/>
     </g>
    </g>
   </g>
   <g id="text_10">
    <g clip-path="url(#pe6671162fe)">
     <!-- FOXL2 -->
     <g transform="translate(69.527565 159.677796) scale(0.12 -0.12)">
      <defs>
       <path id="DejaVuSans-46" d="M 628 4666 
L 3309 4666 
L 3309 4134 
L 1259 4134 
L 1259 2759 
L 3109 2759 
L 3109 2228 
L 1259 2228 
L 1259 0 
L 628 0 
L 628 4666 
z
" transform="scale(0.015625)"/>
       <path id="DejaVuSans-4c" d="M 628 4666 
L 1259 4666 
L 1259 531 
L 3531 531 
L 3531 0 
L 628 0 
L 628 4666 
z
" transform="scale(0.015625)"/>
      </defs>
      <use xlink:href="#DejaVuSans-46"/>
      <use xlink:href="#DejaVuSans-4f" x="57.519531"/>
      <use xlink:href="#DejaVuSans-58" x="129.855469"/>
      <use xlink:href="#DejaVuSans-4c" x="198.361328"/>
      <use xlink:href="#DejaVuSans-32" x="254.074219"/>
     </g>
    </g>
   </g>
   <g id="text_11">
    <g clip-path="url(#pe6671162fe)">
     <!-- CTNNB1 -->
     <g transform="translate(63.823815 196.000697) scale(0.12 -0.12)">
      <defs>
       <path id="DejaVuSans-43" d="M 4122 4306 
L 4122 3641 
Q 3803 3938 3442 4084 
Q 3081 4231 2675 4231 
Q 1875 4231 1450 3742 
Q 1025 3253 1025 2328 
Q 1025 1406 1450 917 
Q 1875 428 2675 428 
Q 3081 428 3442 575 
Q 3803 722 4122 1019 
L 4122 359 
Q 3791 134 3420 21 
Q 3050 -91 2638 -91 
Q 1578 -91 968 557 
Q 359 1206 359 2328 
Q 359 3453 968 4101 
Q 1578 4750 2638 4750 
Q 3056 4750 3426 4639 
Q 3797 4528 4122 4306 
z
" transform="scale(0.015625)"/>
       <path id="DejaVuSans-42" d="M 1259 2228 
L 1259 519 
L 2272 519 
Q 2781 519 3026 730 
Q 3272 941 3272 1375 
Q 3272 1813 3026 2020 
Q 2781 2228 2272 2228 
L 1259 2228 
z
M 1259 4147 
L 1259 2741 
L 2194 2741 
Q 2656 2741 2882 2914 
Q 3109 3088 3109 3444 
Q 3109 3797 2882 3972 
Q 2656 4147 2194 4147 
L 1259 4147 
z
M 628 4666 
L 2241 4666 
Q 2963 4666 3353 4366 
Q 3744 4066 3744 3513 
Q 3744 3084 3544 2831 
Q 3344 2578 2956 2516 
Q 3422 2416 3680 2098 
Q 3938 1781 3938 1306 
Q 3938 681 3513 340 
Q 3088 0 2303 0 
L 628 0 
L 628 4666 
z
" transform="scale(0.015625)"/>
      </defs>
      <use xlink:href="#DejaVuSans-43"/>
      <use xlink:href="#DejaVuSans-54" x="69.824219"/>
      <use xlink:href="#DejaVuSans-4e" x="130.908203"/>
      <use xlink:href="#DejaVuSans-4e" x="205.712891"/>
      <use xlink:href="#DejaVuSans-42" x="280.517578"/>
      <use xlink:href="#DejaVuSans-31" x="349.121094"/>
     </g>
    </g>
   </g>
   <g id="text_12">
    <g clip-path="url(#pe6671162fe)">
     <!-- DMRT1 -->
     <g transform="translate(83.458356 230.355522) scale(0.12 -0.12)">
      <defs>
       <path id="DejaVuSans-4d" d="M 628 4666 
L 1569 4666 
L 2759 1491 
L 3956 4666 
L 4897 4666 
L 4897 0 
L 4281 0 
L 4281 4097 
L 3078 897 
L 2444 897 
L 1241 4097 
L 1241 0 
L 628 0 
L 628 4666 
z
" transform="scale(0.015625)"/>
      </defs>
      <use xlink:href="#DejaVuSans-44"/>
      <use xlink:href="#DejaVuSans-4d" x="77.001953"/>
      <use xlink:href="#DejaVuSans-52" x="163.28125"/>
      <use xlink:href="#DejaVuSans-54" x="225.513672"/>
      <use xlink:href="#DejaVuSans-31" x="286.597656"/>
     </g>
    </g>
   </g>
   <g id="text_13">
    <g clip-path="url(#pe6671162fe)">
     <!-- CBX2 -->
     <g transform="translate(118.280143 259.019393) scale(0.12 -0.12)">
      <use xlink:href="#DejaVuSans-43"/>
      <use xlink:href="#DejaVuSans-42" x="69.824219"/>
      <use xlink:href="#DejaVuSans-58" x="138.427734"/>
      <use xlink:href="#DejaVuSans-32" x="206.933594"/>
     </g>
    </g>
   </g>
   <g id="text_14">
    <g clip-path="url(#pe6671162fe)">
     <!-- NR0B1 -->
     <g transform="translate(155.052102 278.88615) scale(0.12 -0.12)">
      <defs>
       <path id="DejaVuSans-30" d="M 2034 4250 
Q 1547 4250 1301 3770 
Q 1056 3291 1056 2328 
Q 1056 1369 1301 889 
Q 1547 409 2034 409 
Q 2525 409 2770 889 
Q 3016 1369 3016 2328 
Q 3016 3291 2770 3770 
Q 2525 4250 2034 4250 
z
M 2034 4750 
Q 2819 4750 3233 4129 
Q 3647 3509 3647 2328 
Q 3647 1150 3233 529 
Q 2819 -91 2034 -91 
Q 1250 -91 836 529 
Q 422 1150 422 2328 
Q 422 3509 836 4129 
Q 1250 4750 2034 4750 
z
" transform="scale(0.015625)"/>
      </defs>
      <use xlink:href="#DejaVuSans-4e"/>
      <use xlink:href="#DejaVuSans-52" x="74.804688"/>
      <use xlink:href="#DejaVuSans-30" x="144.287109"/>
      <use xlink:href="#DejaVuSans-42" x="207.910156"/>
      <use xlink:href="#DejaVuSans-31" x="276.513672"/>
     </g>
    </g>
   </g>
   <g id="text_15">
    <g clip-path="url(#pe6671162fe)">
     <!-- FGF9 -->
     <g transform="translate(207.508388 287.802886) scale(0.12 -0.12)">
      <use xlink:href="#DejaVuSans-46"/>
      <use xlink:href="#DejaVuSans-47" x="57.519531"/>
      <use xlink:href="#DejaVuSans-46" x="135.009766"/>
      <use xlink:href="#DejaVuSans-39" x="192.529297"/>
     </g>
    </g>
   </g>
   <g id="text_16">
    <g clip-path="url(#pe6671162fe)">
     <!-- DHH -->
     <g transform="translate(257.977503 284.803363) scale(0.12 -0.12)">
      <defs>
       <path id="DejaVuSans-48" d="M 628 4666 
L 1259 4666 
L 1259 2753 
L 3553 2753 
L 3553 4666 
L 4184 4666 
L 4184 0 
L 3553 0 
L 3553 2222 
L 1259 2222 
L 1259 0 
L 628 0 
L 628 4666 
z
" transform="scale(0.015625)"/>
      </defs>
      <use xlink:href="#DejaVuSans-44"/>
      <use xlink:href="#DejaVuSans-48" x="77.001953"/>
      <use xlink:href="#DejaVuSans-48" x="152.197266"/>
     </g>
    </g>
   </g>
   <g id="text_17">
    <g clip-path="url(#pe6671162fe)">
     <!-- RSPO1 -->
     <g transform="translate(296.27765 270.212625) scale(0.12 -0.12)">
      <use xlink:href="#DejaVuSans-52"/>
      <use xlink:href="#DejaVuSans-53" x="69.482422"/>
      <use xlink:href="#DejaVuSans-50" x="132.958984"/>
      <use xlink:href="#DejaVuSans-4f" x="193.261719"/>
      <use xlink:href="#DejaVuSans-31" x="271.972656"/>
     </g>
    </g>
   </g>
   <g id="text_18">
    <g clip-path="url(#pe6671162fe)">
     <!-- WT1pKTS -->
     <g transform="translate(324.232841 245.611777) scale(0.12 -0.12)">
      <defs>
       <path id="DejaVuSans-70" d="M 1159 525 
L 1159 -1331 
L 581 -1331 
L 581 3500 
L 1159 3500 
L 1159 2969 
Q 1341 3281 1617 3432 
Q 1894 3584 2278 3584 
Q 2916 3584 3314 3078 
Q 3713 2572 3713 1747 
Q 3713 922 3314 415 
Q 2916 -91 2278 -91 
Q 1894 -91 1617 61 
Q 1341 213 1159 525 
z
M 3116 1747 
Q 3116 2381 2855 2742 
Q 2594 3103 2138 3103 
Q 1681 3103 1420 2742 
Q 1159 2381 1159 1747 
Q 1159 1113 1420 752 
Q 1681 391 2138 391 
Q 2594 391 2855 752 
Q 3116 1113 3116 1747 
z
" transform="scale(0.015625)"/>
      </defs>
      <use xlink:href="#DejaVuSans-57"/>
      <use xlink:href="#DejaVuSans-54" x="98.876953"/>
      <use xlink:href="#DejaVuSans-31" x="159.960938"/>
      <use xlink:href="#DejaVuSans-70" x="223.583984"/>
      <use xlink:href="#DejaVuSans-4b" x="287.060547"/>
      <use xlink:href="#DejaVuSans-54" x="344.886719"/>
      <use xlink:href="#DejaVuSans-53" x="405.970703"/>
     </g>
    </g>
   </g>
   <g id="text_19">
    <g clip-path="url(#pe6671162fe)">
     <!-- AMH -->
     <g transform="translate(361.886146 213.66676) scale(0.12 -0.12)">
      <use xlink:href="#DejaVuSans-41"/>
      <use xlink:href="#DejaVuSans-4d" x="68.408203"/>
      <use xlink:href="#DejaVuSans-48" x="154.6875"/>
     </g>
    </g>
   </g>
   <g id="text_20">
    <!-- Reference network GSD -->
    <g transform="translate(164.690625 35.472) scale(0.12 -0.12)">
     <defs>
      <path id="DejaVuSans-65" d="M 3597 1894 
L 3597 1613 
L 953 1613 
Q 991 1019 1311 708 
Q 1631 397 2203 397 
Q 2534 397 2845 478 
Q 3156 559 3463 722 
L 3463 178 
Q 3153 47 2828 -22 
Q 2503 -91 2169 -91 
Q 1331 -91 842 396 
Q 353 884 353 1716 
Q 353 2575 817 3079 
Q 1281 3584 2069 3584 
Q 2775 3584 3186 3129 
Q 3597 2675 3597 1894 
z
M 3022 2063 
Q 3016 2534 2758 2815 
Q 2500 3097 2075 3097 
Q 1594 3097 1305 2825 
Q 1016 2553 972 2059 
L 3022 2063 
z
" transform="scale(0.015625)"/>
      <path id="DejaVuSans-66" d="M 2375 4863 
L 2375 4384 
L 1825 4384 
Q 1516 4384 1395 4259 
Q 1275 4134 1275 3809 
L 1275 3500 
L 2222 3500 
L 2222 3053 
L 1275 3053 
L 1275 0 
L 697 0 
L 697 3053 
L 147 3053 
L 147 3500 
L 697 3500 
L 697 3744 
Q 697 4328 969 4595 
Q 1241 4863 1831 4863 
L 2375 4863 
z
" transform="scale(0.015625)"/>
      <path id="DejaVuSans-72" d="M 2631 2963 
Q 2534 3019 2420 3045 
Q 2306 3072 2169 3072 
Q 1681 3072 1420 2755 
Q 1159 2438 1159 1844 
L 1159 0 
L 581 0 
L 581 3500 
L 1159 3500 
L 1159 2956 
Q 1341 3275 1631 3429 
Q 1922 3584 2338 3584 
Q 2397 3584 2469 3576 
Q 2541 3569 2628 3553 
L 2631 2963 
z
" transform="scale(0.015625)"/>
      <path id="DejaVuSans-6e" d="M 3513 2113 
L 3513 0 
L 2938 0 
L 2938 2094 
Q 2938 2591 2744 2837 
Q 2550 3084 2163 3084 
Q 1697 3084 1428 2787 
Q 1159 2491 1159 1978 
L 1159 0 
L 581 0 
L 581 3500 
L 1159 3500 
L 1159 2956 
Q 1366 3272 1645 3428 
Q 1925 3584 2291 3584 
Q 2894 3584 3203 3211 
Q 3513 2838 3513 2113 
z
" transform="scale(0.015625)"/>
      <path id="DejaVuSans-63" d="M 3122 3366 
L 3122 2828 
Q 2878 2963 2633 3030 
Q 2388 3097 2138 3097 
Q 1578 3097 1268 2742 
Q 959 2388 959 1747 
Q 959 1106 1268 751 
Q 1578 397 2138 397 
Q 2388 397 2633 464 
Q 2878 531 3122 666 
L 3122 134 
Q 2881 22 2623 -34 
Q 2366 -91 2075 -91 
Q 1284 -91 818 406 
Q 353 903 353 1747 
Q 353 2603 823 3093 
Q 1294 3584 2113 3584 
Q 2378 3584 2631 3529 
Q 2884 3475 3122 3366 
z
" transform="scale(0.015625)"/>
      <path id="DejaVuSans-20" transform="scale(0.015625)"/>
      <path id="DejaVuSans-74" d="M 1172 4494 
L 1172 3500 
L 2356 3500 
L 2356 3053 
L 1172 3053 
L 1172 1153 
Q 1172 725 1289 603 
Q 1406 481 1766 481 
L 2356 481 
L 2356 0 
L 1766 0 
Q 1100 0 847 248 
Q 594 497 594 1153 
L 594 3053 
L 172 3053 
L 172 3500 
L 594 3500 
L 594 4494 
L 1172 4494 
z
" transform="scale(0.015625)"/>
      <path id="DejaVuSans-77" d="M 269 3500 
L 844 3500 
L 1563 769 
L 2278 3500 
L 2956 3500 
L 3675 769 
L 4391 3500 
L 4966 3500 
L 4050 0 
L 3372 0 
L 2619 2869 
L 1863 0 
L 1184 0 
L 269 3500 
z
" transform="scale(0.015625)"/>
      <path id="DejaVuSans-6f" d="M 1959 3097 
Q 1497 3097 1228 2736 
Q 959 2375 959 1747 
Q 959 1119 1226 758 
Q 1494 397 1959 397 
Q 2419 397 2687 759 
Q 2956 1122 2956 1747 
Q 2956 2369 2687 2733 
Q 2419 3097 1959 3097 
z
M 1959 3584 
Q 2709 3584 3137 3096 
Q 3566 2609 3566 1747 
Q 3566 888 3137 398 
Q 2709 -91 1959 -91 
Q 1206 -91 779 398 
Q 353 888 353 1747 
Q 353 2609 779 3096 
Q 1206 3584 1959 3584 
z
" transform="scale(0.015625)"/>
      <path id="DejaVuSans-6b" d="M 581 4863 
L 1159 4863 
L 1159 1991 
L 2875 3500 
L 3609 3500 
L 1753 1863 
L 3688 0 
L 2938 0 
L 1159 1709 
L 1159 0 
L 581 0 
L 581 4863 
z
" transform="scale(0.015625)"/>
     </defs>
     <use xlink:href="#DejaVuSans-52"/>
     <use xlink:href="#DejaVuSans-65" x="64.982422"/>
     <use xlink:href="#DejaVuSans-66" x="126.505859"/>
     <use xlink:href="#DejaVuSans-65" x="161.710938"/>
     <use xlink:href="#DejaVuSans-72" x="223.234375"/>
     <use xlink:href="#DejaVuSans-65" x="262.097656"/>
     <use xlink:href="#DejaVuSans-6e" x="323.621094"/>
     <use xlink:href="#DejaVuSans-63" x="387"/>
     <use xlink:href="#DejaVuSans-65" x="441.980469"/>
     <use xlink:href="#DejaVuSans-20" x="503.503906"/>
     <use xlink:href="#DejaVuSans-6e" x="535.291016"/>
     <use xlink:href="#DejaVuSans-65" x="598.669922"/>
     <use xlink:href="#DejaVuSans-74" x="660.193359"/>
     <use xlink:href="#DejaVuSans-77" x="699.402344"/>
     <use xlink:href="#DejaVuSans-6f" x="781.189453"/>
     <use xlink:href="#DejaVuSans-72" x="842.371094"/>
     <use xlink:href="#DejaVuSans-6b" x="883.484375"/>
     <use xlink:href="#DejaVuSans-20" x="941.394531"/>
     <use xlink:href="#DejaVuSans-47" x="973.181641"/>
     <use xlink:href="#DejaVuSans-53" x="1050.671875"/>
     <use xlink:href="#DejaVuSans-44" x="1114.148438"/>
    </g>
   </g>
  </g>
 </g>
 <defs>
  <clipPath id="pe6671162fe">
   <rect x="57.6" y="41.472" width="357.12" height="266.112"/>
  </clipPath>
 </defs>
</svg>
