<?xml version="1.0" encoding="UTF-8" standalone="no"?>
<!DOCTYPE svg PUBLIC "-//W3C//DTD SVG 1.1//EN" "http://www.w3.org/Graphics/SVG/1.1/DTD/svg11.dtd">
<svg width="100%" height="100%" viewBox="0 0 639 172" version="1.1" xmlns="http://www.w3.org/2000/svg" xmlns:xlink="http://www.w3.org/1999/xlink" xml:space="preserve" xmlns:serif="http://www.serif.com/" style="fill-rule:evenodd;clip-rule:evenodd;stroke-linecap:round;stroke-linejoin:round;stroke-miterlimit:1.5;">
    <g transform="matrix(1,0,0,1,-921.112,-157.399)">
        <g transform="matrix(0.616948,0.210196,-0.251051,0.516548,409.633,-72.0577)">
            <path d="M1007,179L1120,133.018" style="fill:none;stroke:rgb(236,112,121);stroke-width:14.48px;"/>
        </g>
        <g transform="matrix(0.616948,0.210196,-0.251051,0.516548,611.495,-67.3889)">
            <path d="M1007,179L1120,133.018" style="fill:none;stroke:rgb(236,112,121);stroke-width:14.48px;"/>
        </g>
        <g transform="matrix(0.0500699,0.291661,-0.365714,0.374513,1261.05,-139.737)">
            <path d="M1007,179L1120,133.018" style="fill:none;stroke:rgb(236,112,121);stroke-width:15.99px;"/>
        </g>
        <g transform="matrix(0.291196,0.0527036,0.226845,0.47175,912.768,114.961)">
            <path d="M1007,179L1120,133.018" style="fill:none;stroke:rgb(236,112,121);stroke-width:15.99px;"/>
        </g>
        <g transform="matrix(0.6435,0,0,0.662891,223.626,-2.43886)">
            <path d="M1204,270L1187,341" style="fill:none;stroke:rgb(162,162,162);stroke-width:12.76px;"/>
        </g>
        <g transform="matrix(0.6435,0,0,0.662891,223.626,-2.43886)">
            <path d="M1111,307L1172,344" style="fill:none;stroke:rgb(162,162,162);stroke-width:12.76px;"/>
        </g>
        <g transform="matrix(0.6435,0,0,0.662891,223.626,-2.43886)">
            <path d="M1111,402L1172,361" style="fill:none;stroke:rgb(162,162,162);stroke-width:12.76px;"/>
        </g>
        <g transform="matrix(0.6435,0,0,0.662891,223.626,-2.43886)">
            <path d="M1202,438L1187,365" style="fill:none;stroke:rgb(162,162,162);stroke-width:12.76px;"/>
        </g>
        <g transform="matrix(0.6435,0,0,0.662891,156.64,-2.46932)">
            <path d="M1415,343L1395,269" style="fill:none;stroke:rgb(162,162,162);stroke-width:12.76px;"/>
        </g>
        <g transform="matrix(0.6435,0,0,0.662891,156.64,-2.46932)">
            <path d="M1415,367L1397,437" style="fill:none;stroke:rgb(162,162,162);stroke-width:12.76px;"/>
        </g>
        <g transform="matrix(0.6435,0,0,0.662891,156.64,-2.46932)">
            <path d="M1429,346L1493,313" style="fill:none;stroke:rgb(162,162,162);stroke-width:12.76px;"/>
        </g>
        <g transform="matrix(0.6435,0,0,0.662891,156.64,-2.46932)">
            <path d="M1428,364L1489,402" style="fill:none;stroke:rgb(162,162,162);stroke-width:12.76px;"/>
        </g>
        <g transform="matrix(0.540256,0,0,0.557677,323.784,94.5844)">
            <path d="M1354.59,131.829L1478.97,183" style="fill:none;stroke:rgb(162,162,162);stroke-width:15.18px;"/>
        </g>
        <g transform="matrix(0.540256,0,0,0.557677,323.784,94.5844)">
            <path d="M1478.97,193L1478.97,303.811" style="fill:none;stroke:rgb(162,162,162);stroke-width:15.18px;"/>
        </g>
        <g transform="matrix(0.540256,0,0,0.557677,323.784,94.5844)">
            <path d="M1354.59,357L1475.4,314.883" style="fill:none;stroke:rgb(162,162,162);stroke-width:15.18px;"/>
        </g>
        <g transform="matrix(0.540256,0,0,0.557677,390.769,94.6149)">
            <path d="M1007,179L1120,133.018" style="fill:none;stroke:rgb(162,162,162);stroke-width:15.18px;"/>
        </g>
        <g transform="matrix(0.540256,0,0,0.557677,390.769,94.6149)">
            <path d="M1001,193L1001.34,303.811" style="fill:none;stroke:rgb(162,162,162);stroke-width:15.18px;"/>
        </g>
        <g transform="matrix(0.540256,0,0,0.557677,390.769,94.6149)">
            <path d="M1007,314.883L1110.93,361.241" style="fill:none;stroke:rgb(162,162,162);stroke-width:15.18px;"/>
        </g>
        <g transform="matrix(0.69189,0,0,0.696985,732.159,134.792)">
            <circle cx="363.807" cy="139.141" r="13.013" style="fill:rgb(92,92,92);stroke:rgb(92,92,92);stroke-width:4.7px;"/>
        </g>
        <g transform="matrix(0.69189,0,0,0.696985,746.316,199.092)">
            <circle cx="363.807" cy="139.141" r="13.013" style="fill:rgb(92,92,92);stroke:rgb(92,92,92);stroke-width:4.7px;"/>
        </g>
        <g transform="matrix(0.69189,0,0,0.696985,680.035,172.576)">
            <circle cx="363.807" cy="139.141" r="13.013" style="fill:rgb(92,92,92);stroke:rgb(92,92,92);stroke-width:4.7px;"/>
        </g>
        <g transform="matrix(0.69189,0,0,0.696985,680.679,98.9954)">
            <circle cx="363.807" cy="139.141" r="13.013" style="fill:rgb(92,92,92);stroke:rgb(92,92,92);stroke-width:4.7px;"/>
        </g>
        <g transform="matrix(0.69189,0,0,0.696985,748.246,71.8168)">
            <circle cx="363.807" cy="139.141" r="13.013" style="fill:rgb(92,92,92);stroke:rgb(92,92,92);stroke-width:4.7px;"/>
        </g>
        <g transform="matrix(0.69189,0,0,0.696985,800.308,71.1235)">
            <circle cx="363.807" cy="139.141" r="13.013" style="fill:rgb(92,92,92);stroke:rgb(92,92,92);stroke-width:4.7px;"/>
        </g>
        <g transform="matrix(0.69189,0,0,0.696985,800.951,199.061)">
            <circle cx="363.807" cy="139.141" r="13.013" style="fill:rgb(92,92,92);stroke:rgb(92,92,92);stroke-width:4.7px;"/>
        </g>
        <g transform="matrix(0.69189,0,0,0.696985,869.162,173.209)">
            <circle cx="363.807" cy="139.141" r="13.013" style="fill:rgb(92,92,92);stroke:rgb(92,92,92);stroke-width:4.7px;"/>
        </g>
        <g transform="matrix(0.69189,0,0,0.696985,871.093,102.279)">
            <circle cx="363.807" cy="139.141" r="13.013" style="fill:rgb(92,92,92);stroke:rgb(92,92,92);stroke-width:4.7px;"/>
        </g>
        <g transform="matrix(0.69189,0,0,0.696985,817.682,136.087)">
            <circle cx="363.807" cy="139.141" r="13.013" style="fill:rgb(92,92,92);stroke:rgb(92,92,92);stroke-width:4.7px;"/>
        </g>
        <g transform="matrix(0.6435,0,0,0.662891,628.995,-1.6148)">
            <path d="M1204,270L1187,341" style="fill:none;stroke:rgb(162,162,162);stroke-width:12.76px;"/>
        </g>
        <g transform="matrix(0.6435,0,0,0.662891,628.995,-1.6148)">
            <path d="M1111,307L1172,344" style="fill:none;stroke:rgb(162,162,162);stroke-width:12.76px;"/>
        </g>
        <g transform="matrix(0.6435,0,0,0.662891,628.995,-1.6148)">
            <path d="M1111,402L1172,361" style="fill:none;stroke:rgb(162,162,162);stroke-width:12.76px;"/>
        </g>
        <g transform="matrix(0.6435,0,0,0.662891,628.995,-1.6148)">
            <path d="M1202,438L1187,365" style="fill:none;stroke:rgb(162,162,162);stroke-width:12.76px;"/>
        </g>
        <g transform="matrix(0.6435,0,0,0.662891,582.399,-2.32645)">
            <path d="M1415,343L1395,269" style="fill:none;stroke:rgb(162,162,162);stroke-width:12.76px;"/>
        </g>
        <g transform="matrix(0.6435,0,0,0.662891,582.399,-2.32645)">
            <path d="M1415,367L1397,437" style="fill:none;stroke:rgb(162,162,162);stroke-width:12.76px;"/>
        </g>
        <g transform="matrix(0.6435,0,0,0.662891,582.399,-2.32645)">
            <path d="M1429,346L1493,313" style="fill:none;stroke:rgb(162,162,162);stroke-width:12.76px;"/>
        </g>
        <g transform="matrix(0.6435,0,0,0.662891,582.399,-2.32645)">
            <path d="M1428,364L1489,402" style="fill:none;stroke:rgb(162,162,162);stroke-width:12.76px;"/>
        </g>
        <g transform="matrix(0.540256,0,0,0.557677,749.542,94.7273)">
            <path d="M1354.59,131.829L1478.97,183" style="fill:none;stroke:rgb(162,162,162);stroke-width:15.18px;"/>
        </g>
        <g transform="matrix(0.540256,0,0,0.557677,749.542,94.7273)">
            <path d="M1478.97,193L1478.97,303.811" style="fill:none;stroke:rgb(162,162,162);stroke-width:15.18px;"/>
        </g>
        <g transform="matrix(0.540256,0,0,0.557677,749.542,94.7273)">
            <path d="M1354.59,357L1475.4,314.883" style="fill:none;stroke:rgb(162,162,162);stroke-width:15.18px;"/>
        </g>
        <g transform="matrix(0.540256,0,0,0.557677,796.138,95.4389)">
            <path d="M1007,179L1120,133.018" style="fill:none;stroke:rgb(162,162,162);stroke-width:15.18px;"/>
        </g>
        <g transform="matrix(0.540256,0,0,0.557677,796.138,95.4389)">
            <path d="M1001,193L1001.34,303.811" style="fill:none;stroke:rgb(162,162,162);stroke-width:15.18px;"/>
        </g>
        <g transform="matrix(0.540256,0,0,0.557677,796.138,95.4389)">
            <path d="M1007,314.883L1110.93,361.241" style="fill:none;stroke:rgb(162,162,162);stroke-width:15.18px;"/>
        </g>
        <g transform="matrix(0.69189,0,0,0.696985,1137.53,135.616)">
            <circle cx="363.807" cy="139.141" r="13.013" style="fill:rgb(92,92,92);stroke:rgb(92,92,92);stroke-width:4.7px;"/>
        </g>
        <g transform="matrix(0.69189,0,0,0.696985,1151.68,199.916)">
            <circle cx="363.807" cy="139.141" r="13.013" style="fill:rgb(92,92,92);stroke:rgb(92,92,92);stroke-width:4.7px;"/>
        </g>
        <g transform="matrix(0.69189,0,0,0.696985,1085.4,173.4)">
            <circle cx="363.807" cy="139.141" r="13.013" style="fill:rgb(92,92,92);stroke:rgb(92,92,92);stroke-width:4.7px;"/>
        </g>
        <g transform="matrix(0.69189,0,0,0.696985,1086.05,99.8194)">
            <circle cx="363.807" cy="139.141" r="13.013" style="fill:rgb(92,92,92);stroke:rgb(92,92,92);stroke-width:4.7px;"/>
        </g>
        <g transform="matrix(0.69189,0,0,0.696985,1153.61,72.6409)">
            <circle cx="363.807" cy="139.141" r="13.013" style="fill:rgb(92,92,92);stroke:rgb(92,92,92);stroke-width:4.7px;"/>
        </g>
        <g transform="matrix(0.69189,0,0,0.696985,1226.07,71.2664)">
            <circle cx="363.807" cy="139.141" r="13.013" style="fill:rgb(92,92,92);stroke:rgb(92,92,92);stroke-width:4.7px;"/>
        </g>
        <g transform="matrix(0.69189,0,0,0.696985,1226.71,199.204)">
            <circle cx="363.807" cy="139.141" r="13.013" style="fill:rgb(92,92,92);stroke:rgb(92,92,92);stroke-width:4.7px;"/>
        </g>
        <g transform="matrix(0.69189,0,0,0.696985,1294.92,173.352)">
            <circle cx="363.807" cy="139.141" r="13.013" style="fill:rgb(92,92,92);stroke:rgb(92,92,92);stroke-width:4.7px;"/>
        </g>
        <g transform="matrix(0.69189,0,0,0.696985,1296.85,102.422)">
            <circle cx="363.807" cy="139.141" r="13.013" style="fill:rgb(92,92,92);stroke:rgb(92,92,92);stroke-width:4.7px;"/>
        </g>
        <g transform="matrix(0.69189,0,0,0.696985,1243.44,136.23)">
            <circle cx="363.807" cy="139.141" r="13.013" style="fill:rgb(92,92,92);stroke:rgb(92,92,92);stroke-width:4.7px;"/>
        </g>
        <g transform="matrix(1,0,0,1,590.121,115.399)">
            <g transform="matrix(37.5,0,0,37.5,741.291,213)">
            </g>
            <text x="537px" y="213px" style="font-family:'ArialMT', 'Arial', sans-serif;font-size:37.5px;fill:rgb(236,112,121);">Perturbation</text>
        </g>
    </g>
</svg>
